<?xml version="1.0" encoding="utf-8"?>
<!-- Generator: Adobe Illustrator 19.0.0, SVG Export Plug-In . SVG Version: 6.00 Build 0)  -->
<svg version="1.1" id="Layer_1" xmlns="http://www.w3.org/2000/svg" xmlns:xlink="http://www.w3.org/1999/xlink" x="0px" y="0px"
	 viewBox="0 0 206 139" style="enable-background:new 0 0 206 139;" xml:space="preserve">
<style type="text/css">
	.st0{clip-path:url(#SVGID_2_);fill:#FFFFFF;}
	.st1{clip-path:url(#SVGID_4_);fill:#FFFFFF;}
	.st2{clip-path:url(#SVGID_6_);fill:#FFFFFF;}
</style>
<g>
	<g>
		<defs>
			<path id="SVGID_1_" d="M93.1,92.7c-0.4,0.2-0.9,0.2-1.3,0.2c-0.9,0-1.8-0.3-2.4-0.9c-1-0.9-1.4-2.3-1-3.6l2.6-9.1
				c-11.2,15.3-22.7,25.3-41.1,25.3c-19.3,0-35-15.7-35-35c0-6.9,2-13.3,5.5-18.7l0.8,1.7c0.6,1.1,1.7,1.9,2.9,2c0.1,0,0.2,0,0.3,0
				c1.1,0,2.2-0.5,2.9-1.4l16.3-21.7c0.8-1.1,1-2.6,0.3-3.8c-0.6-1.2-1.9-2-3.2-2l-27.2,0c0,0,0,0,0,0c-1.2,0-2.4,0.6-3.1,1.7
				c-0.7,1.1-0.7,2.4-0.2,3.5l3.5,7C6.2,46.1,1.7,57.3,1.7,69.5c0,26.6,21.6,48.2,48.2,48.2c14.2,0,26.5-4.8,37.6-14.7
				c4-3.6,8.4-8.3,11.9-12.7l0,0L93.1,92.7z"/>
		</defs>
		<use xlink:href="#SVGID_1_"  style="overflow:visible;fill:#FFFFFF;"/>
		<clipPath id="SVGID_2_">
			<use xlink:href="#SVGID_1_"  style="overflow:visible;"/>
		</clipPath>
		<rect x="-8.9" y="14.9" class="st0" width="118.8" height="113.3"/>
	</g>
	<g>
		<defs>
			<path id="SVGID_3_" d="M142.3,105.7l-9.5-25.2c-0.4-1.2-1.5-2-2.7-2.3c-1.2-0.2-2.5,0.2-3.3,1.1l-3.9,4.2
				c-3.2-4.3-6.3-9.1-9.5-14l0,0l-7.9-12c-5.5-8-11.2-15.4-18-21.5c-11.1-9.9-23.4-14.7-37.6-14.7c-0.6,0-1.2,0-1.8,0
				c0.9,0.8,1.6,1.8,2.2,3c1.6,3.3,1.5,7.1-0.4,10.2c0,0,0,0,0,0c22.1,0,34.2,14.3,47.8,35l7.8,12c2.7,4.1,5.4,8.1,8.4,11.8
				l-3.6,3.8c-0.8,0.9-1.2,2.2-0.8,3.4s1.3,2.2,2.5,2.5l26.1,7.6c0.3,0.1,0.7,0.1,1,0.1c0,0,0,0,0,0c2,0,3.6-1.6,3.6-3.6
				C142.6,106.7,142.5,106.2,142.3,105.7z"/>
		</defs>
		<use xlink:href="#SVGID_3_"  style="overflow:visible;fill:#FFFFFF;"/>
		<clipPath id="SVGID_4_">
			<use xlink:href="#SVGID_3_"  style="overflow:visible;"/>
		</clipPath>
		<rect x="37.5" y="10.8" class="st1" width="115.7" height="110.6"/>
	</g>
	<g>
		<defs>
			<path id="SVGID_5_" d="M190.2,35.4c-9.1-9.1-21.2-14.1-34.1-14.1c-11.2,0-20.2,3.7-27.8,9.4l-4.1-3.7c-0.9-0.8-2.2-1.1-3.4-0.8
				c-1.2,0.3-2.1,1.3-2.5,2.5L111,54.9c-0.4,1.3,0,2.7,1,3.6c0.7,0.6,1.5,0.9,2.4,0.9c0.4,0,0.9-0.1,1.3-0.2l25.4-9.8
				c1.2-0.4,2-1.5,2.2-2.7c0.2-1.2-0.2-2.5-1.1-3.3l-3.9-3.5c5.2-3.4,11-5.3,17.8-5.3c19.3,0,35,15.7,35,35c0,19.3-15.7,35-35,35
				c-2.5,0-4.9-0.3-7.1-0.8c0.4,1.1,0.6,2.3,0.6,3.5c0,3.8-2,7.1-5,9c3.6,0.9,7.4,1.4,11.5,1.4c26.6,0,48.2-21.6,48.2-48.2
				C204.3,56.6,199.3,44.5,190.2,35.4z"/>
		</defs>
		<use xlink:href="#SVGID_5_"  style="overflow:visible;fill:#FFFFFF;"/>
		<clipPath id="SVGID_6_">
			<use xlink:href="#SVGID_5_"  style="overflow:visible;"/>
		</clipPath>
		<rect x="100.3" y="10.8" class="st2" width="114.6" height="117.4"/>
	</g>
</g>
</svg>
