<svg xmlns="http://www.w3.org/2000/svg" width="43" height="20" viewBox="0 0 43 20">
  <path fill="none" stroke="#fff" stroke-linecap="round" stroke-linejoin="round" stroke-width="3" d="m26.0630685 20.7307737c1.2255519-3.4347565 4.5605656-5.657589 8.2024352-5.4670342 3.6418718.1905522 6.7267 2.7492924 7.5871047 6.2931949.8604048 3.5439033-.7077162 7.2323053-3.8567739 9.0715898-3.1490576 1.8392876-7.132055 1.3931531-9.7961429-1.097262-.175785-.1669915-.3515653-.3427722-.5132826-.5273431l-10.5310566-11.1427739c-.3056912-.3256766-.6372436-.6260732-.9914113-.898245l.0000058.0000027c-2.8287019-2.1702532-6.73160797-2.2774476-9.67516732-.2657318-2.94355935 2.011717-4.26143926 5.6869524-3.2669801 9.1107803.99445908 3.4238264 4.07614639 5.8211951 7.63939022 5.9429944 3.5632453.1217964 6.8014382-2.0595502 8.0273662-5.4074808" transform="translate(-.606 -13.697)"/>
</svg>
