<svg height="43" viewBox="0 0 36 43" width="36" xmlns="http://www.w3.org/2000/svg"><path d="m96.25 622.746216c.5.5625 1 .5625 1.5 0l13.875-13.875c.5625-.5625.5625-1.09375 0-1.59375l-.65625-.65625c-.5-.5625-1.03125-.5625-1.59375 0l-10.78125 10.875v-29.25c0-.75-.375-1.125-1.125-1.125h-.9375c-.75 0-1.125.375-1.125 1.125v29.25l-10.78125-10.875c-.5625-.5625-1.09375-.5625-1.59375 0l-.65625.65625c-.5625.5625-.5625 1.09375 0 1.59375zm17.625 6.375c.75 0 1.125-.375 1.125-1.125v-.75c0-.75-.375-1.125-1.125-1.125h-33.75c-.75 0-1.125.375-1.125 1.125v.75c0 .75.375 1.125 1.125 1.125z" fill="#fff" transform="translate(-79 -587)"/></svg>