<svg xmlns="http://www.w3.org/2000/svg" width="92" height="44" viewBox="0 0 92 44">
  <path fill="#222" d="m34 .36216c-3.2894 0-6 2.71059-6 6v30.00004c0 3.2894 2.7106 6 6 6h52c3.2894 0 6-2.7106 6-6v-30.00004c0-3.28941-2.7106-6-6-6zm0 4h52c1.1426 0 2 .8574 2 2v30.00004c0 1.1426-.8574 2-2 2h-52c-1.1426 0-2-.8574-2-2v-30.00004c0-1.1426.8574-2 2-2zm-32 3c-1.1046 0-2 .8954-2 2s.8954 2 2 2h20c1.1046 0 2-.8954 2-2s-.8954-2-2-2zm37.9062.96875c-.8093412.03047612-1.5204231.54601333-1.8010396 1.30576087-.2806165.75974753-.0753748 1.61373343.5198396 2.16298913l9.8438 9.25004-9.875 9.875c-.5256942.4986305-.7406272 1.2425688-.5618561 1.9447281.1787712.7021593.7232911 1.2527393 1.4234289 1.4392706.7001378.1865312 1.4464092-.0201552 1.9508272-.5402987l9.9688-9.9687 4.0312 3.8125c2.5553 2.4086 6.569 2.4028 9.125 0l4.0626-3.8438 10 10c.504418.5201435 1.2506894.7268299 1.9508272.5402987.7001378-.1865313 1.2446577-.7371113 1.4234289-1.4392706.1787711-.7021593-.0361619-1.4460976-.5618561-1.9447281l-9.875-9.875 9.8438-9.25004c.5191517-.4912402.736794-1.2221289.5709434-1.91734752-.1658507-.6952186-.6899978-1.24914677-1.3750001-1.4531251-.6850024-.20397834-1.4267918-.02701767-1.9459433.46422262l-16.8125 15.81249c-.8017.7536-2.8584.7518-3.6563 0l-16.7812-15.81249c-.3922466-.38020414-.9229298-.5834376-1.4688-.5625zm-33.9062 11.03129c-1.1046 0-2 .8954-2 2s.8954 2 2 2h16c1.1046 0 2-.8954 2-2s-.8954-2-2-2zm4 12c-1.1046 0-2 .8954-2 2s.8954 2 2 2h12c1.1046 0 2-.8954 2-2s-.8954-2-2-2z" transform="translate(0 .638)"/>
</svg>
