<svg height="9" viewBox="0 0 20 9" width="20" xmlns="http://www.w3.org/2000/svg"><g fill="#fff"><path d="m7.5 3.3c.2 0 .4-.2.4-.4v-1.1c0-.1 0-.1 0-.2l3.8 2.4-3.8 3.3v-2.1c0-.2-.2-.4-.4-.4h-2.5c-.2 0-.4.2-.4.4s.2.4.4.4h2.1v1.7c0 .4.1.7.4.9.3.3.6.5 1 .5h9.7c.4 0 .8-.2 1.1-.5.2-.2.3-.5.3-.9v-5.5c0-.4-.2-.8-.5-1.1-.2-.2-.5-.3-.9-.3h-9.7c-.3 0-.7.1-.9.3-.3.3-.5.6-.5 1v1.1c0 .3.2.5.4.5zm11.3-1.5v5.4l-3.8-3.3 3.7-2.4c.1.1.1.2.1.3zm-5.5 2.2-4.6-2.9h9.1zm-4.8 3.9 3.9-3.5.8.5c.1 0 .1.1.2.1s.1 0 .2-.1l.8-.5 4 3.5h-.1z"/><path d="m1 4.4h9c.2 0 .4-.2.4-.4s-.2-.4-.4-.4h-9c-.2 0-.4.2-.4.4s.1.4.4.4z"/><path d="m2.6 3.2h3c.2 0 .4-.2.4-.4s-.2-.4-.4-.4h-3c-.2 0-.4.2-.4.4s.1.4.4.4z"/><path d="m6.3 5.9h-3c-.2 0-.4.2-.4.4s.2.4.4.4h3c.2 0 .4-.2.4-.4s-.2-.4-.4-.4z"/></g></svg>