<?xml version="1.0" encoding="utf-8"?>
<!-- Generator: Adobe Illustrator 21.0.0, SVG Export Plug-In . SVG Version: 6.00 Build 0)  -->
<svg version="1.1" id="Layer_1" xmlns="http://www.w3.org/2000/svg" xmlns:xlink="http://www.w3.org/1999/xlink" x="0px" y="0px"
	 viewBox="-275.8 379.3 108.8 42.7" style="enable-background:new -275.8 379.3 108.8 42.7;" xml:space="preserve">
<style type="text/css">
	.st0{fill:#FFFFFF;}
	.st1{font-family:'Lato-Regular';}
	.st2{font-size:2.6564px;}
	.st3{clip-path:url(#SVGID_1_);}
	.st4{clip-path:url(#SVGID_2_);fill:#2BA8E0;}
	.st5{clip-path:url(#SVGID_3_);}
	.st6{clip-path:url(#SVGID_4_);fill:#2BA8E0;}
	.st7{fill:#FCD051;}
</style>
<g>
	<g id="XMLID_1_">
		<path id="XMLID_3_" class="st0" d="M-253.7,404v-8.9h2.9c0.5,0,1.1,0.1,1.4,0.2c0.4,0.1,0.7,0.2,1,0.4c0.3,0.2,0.4,0.4,0.5,0.7
			c0.1,0.3,0.2,0.6,0.2,1c0,0.2,0,0.4-0.1,0.6c-0.1,0.2-0.2,0.4-0.3,0.5c-0.1,0.2-0.3,0.3-0.5,0.4c-0.2,0.1-0.4,0.2-0.7,0.3
			c0.6,0.1,1.2,0.3,1.5,0.7c0.3,0.3,0.5,0.7,0.5,1.4c0,0.4-0.1,0.7-0.2,1.1c-0.1,0.3-0.3,0.5-0.6,0.9c-0.3,0.2-0.6,0.4-1,0.5
			c-0.4,0.1-0.9,0.2-1.4,0.2H-253.7L-253.7,404L-253.7,404z M-252.6,399.1h1.6c0.3,0,0.6,0,0.9-0.1s0.4-0.2,0.6-0.3s0.3-0.3,0.3-0.5
			c0.1-0.2,0.1-0.4,0.1-0.6c0-0.5-0.1-1-0.4-1.2c-0.3-0.2-0.9-0.3-1.5-0.3h-1.6C-252.6,396-252.6,399.1-252.6,399.1z M-252.6,400
			v3.1h1.9c0.3,0,0.6,0,0.9-0.1c0.2-0.1,0.4-0.2,0.6-0.3s0.3-0.3,0.3-0.5c0.1-0.2,0.1-0.4,0.1-0.6c0-0.4-0.2-0.9-0.5-1.1
			c-0.3-0.3-0.9-0.4-1.5-0.4h-1.8V400z"/>
		<path id="XMLID_2_" class="st0" d="M-244,406c0,0.1-0.1,0.1-0.1,0.2c-0.1,0-0.1,0.1-0.2,0.1h-0.9l1.2-2.6l-2.7-6h1
			c0.1,0,0.2,0,0.2,0.1c0.1,0,0.1,0.1,0.1,0.1l1.7,3.9c0,0.1,0.1,0.2,0.1,0.3s0,0.2,0.1,0.3c0-0.1,0.1-0.2,0.1-0.3s0.1-0.2,0.1-0.3
			l1.6-3.9c0-0.1,0.1-0.1,0.1-0.2c0.1,0,0.1-0.1,0.2-0.1h0.9L-244,406z"/>
	</g>
	<g>
		<text transform="matrix(1 0 0 1 -174.4143 391.0635)" class="st0 st1 st2">TM</text>
		<g>
			<path class="st0" d="M-236.7,403.8l5.2-0.5c0.2,0.6,0.5,1.1,0.9,1.3c0.4,0.3,0.9,0.4,1.6,0.4c0.7,0,1.3-0.2,1.6-0.5
				c0.3-0.2,0.5-0.5,0.5-0.8c0-0.4-0.2-0.7-0.6-0.9c-0.3-0.1-1-0.3-2.3-0.5c-1.8-0.3-3.1-0.6-3.8-0.9c-0.7-0.3-1.3-0.7-1.8-1.4
				c-0.5-0.6-0.7-1.4-0.7-2.2c0-0.9,0.3-1.7,0.8-2.3c0.5-0.7,1.3-1.1,2.2-1.5c0.9-0.3,2.2-0.5,3.7-0.5c1.6,0,2.9,0.1,3.6,0.4
				c0.8,0.3,1.4,0.6,2,1.2c0.5,0.5,1,1.2,1.3,2.1l-5,0.5c-0.1-0.4-0.3-0.8-0.6-1c-0.4-0.3-0.9-0.4-1.5-0.4c-0.6,0-1,0.1-1.3,0.3
				c-0.3,0.2-0.4,0.5-0.4,0.8c0,0.3,0.2,0.6,0.5,0.8c0.3,0.2,1.1,0.3,2.3,0.5c1.8,0.2,3.1,0.5,3.9,0.8c0.9,0.4,1.5,0.9,2,1.5
				c0.5,0.7,0.7,1.4,0.7,2.2c0,0.8-0.2,1.6-0.7,2.3c-0.5,0.8-1.2,1.3-2.3,1.8c-1,0.4-2.4,0.7-4.2,0.7c-2.5,0-4.3-0.4-5.4-1.1
				C-235.7,406.1-236.4,405.1-236.7,403.8z"/>
			<path class="st0" d="M-184.7,393.4c-0.7,0-1.4,0.2-1.9,0.6c-0.5,0.4-1,1-1.5,2v-2.3h-4.4c1.1,1.6,1.6,3.5,1.6,5.5
				c0,2.3-0.8,4.5-2.2,6.3v1.9h5.3v-4.6c0-2.2,0.3-3.7,0.8-4.5c0.4-0.6,0.9-0.9,1.6-0.9c0.4,0,0.9,0.1,1.5,0.4l1.6-3.8
				C-183.1,393.7-184,393.4-184.7,393.4z"/>
			<path class="st0" d="M-181,388.5h5.3v3.6h-5.3V388.5z M-181,393.8h5.3v13.8h-5.3V393.8z"/>
			<g>
				<defs>
					<path id="SVGID_35_" d="M-211.4,399.3c0,5.3,4.2,9.5,9.4,9.5c5.3,0,9.4-4.2,9.4-9.5c0-5.3-4.2-9.5-9.4-9.5
						C-207.1,389.8-211.4,394.1-211.4,399.3 M-207.5,398.4c0.3-2.6,2.6-4.7,5.3-4.8c3.2-0.1,5.7,2.4,5.7,5.6c0,3-2.3,5.4-5.3,5.6
						c-0.2,0-0.3,0.1-0.3,0.3v1.6c0,0.1-0.1,0.2-0.2,0.1C-205.4,403.8-207.9,401.7-207.5,398.4"/>
				</defs>
				<use xlink:href="#SVGID_35_"  style="overflow:visible;fill-rule:evenodd;clip-rule:evenodd;fill:#2BA8E0;"/>
				<clipPath id="SVGID_1_">
					<use xlink:href="#SVGID_35_"  style="overflow:visible;"/>
				</clipPath>
				<g class="st3">
					<defs>
						<rect id="SVGID_36_" x="-230.3" y="388.4" width="56.7" height="23"/>
					</defs>
					<use xlink:href="#SVGID_36_"  style="overflow:visible;fill:#2BA8E0;"/>
					<clipPath id="SVGID_2_">
						<use xlink:href="#SVGID_36_"  style="overflow:visible;"/>
					</clipPath>
					<rect x="-212.5" y="388.7" class="st4" width="21" height="21.1"/>
				</g>
			</g>
			<g>
				<defs>
					<path id="SVGID_33_" d="M-199.2,401.4c-0.5,0.3-2.9,1.6-5.8,0.1v0.1C-204.4,402-201.9,403.9-199.2,401.4"/>
				</defs>
				<use xlink:href="#SVGID_33_"  style="overflow:visible;fill-rule:evenodd;clip-rule:evenodd;fill:#2BA8E0;"/>
				<clipPath id="SVGID_3_">
					<use xlink:href="#SVGID_33_"  style="overflow:visible;"/>
				</clipPath>
				<g class="st5">
					<defs>
						<rect id="SVGID_34_" x="-230.5" y="388.4" width="56.7" height="23"/>
					</defs>
					<use xlink:href="#SVGID_34_"  style="overflow:visible;fill:#2BA8E0;"/>
					<clipPath id="SVGID_4_">
						<use xlink:href="#SVGID_34_"  style="overflow:visible;"/>
					</clipPath>
					<rect x="-206" y="400.3" class="st6" width="7.9" height="3.4"/>
				</g>
			</g>
			<path class="st0" d="M-212,404c-0.5,0.1-0.8,0.2-1.1,0.2c-0.4,0-0.7-0.1-0.9-0.4c-0.1-0.2-0.2-0.6-0.2-1.2v-4.9h1.2
				c0.2-1.4,0.7-2.7,1.5-3.9h-2.7v-5.2l-5.3,2.7v2.5h-1.9v3.9h1.9v4.8c0,1.5,0.1,2.6,0.4,3.3c0.3,0.7,0.8,1.2,1.4,1.5
				c0.6,0.3,1.6,0.5,2.9,0.5c1.1,0,2.4-0.1,3.7-0.4l-0.3-2.5C-211.6,404.7-211.8,404.4-212,404z"/>
		</g>
	</g>
	<g transform="translate(0,-952.36218)">
		<g transform="translate(29.998032,968.32871)">
			<path class="st7" d="M-298.3,396.8l10.3-14.3h-6.8l2.8-10l-10.3,14.3h6.8L-298.3,396.8z"/>
		</g>
	</g>
</g>
</svg>
