<?xml version="1.0" encoding="utf-8"?>
<!-- Generator: Adobe Illustrator 23.1.0, SVG Export Plug-In . SVG Version: 6.00 Build 0)  -->
<svg version="1.1" id="Layer_1" xmlns="http://www.w3.org/2000/svg" xmlns:xlink="http://www.w3.org/1999/xlink" x="0px" y="0px"
	 viewBox="0 0 1000 900" style="enable-background:new 0 0 1000 900;" xml:space="preserve">
<style type="text/css">
	.st0{fill:#FFFFFF;}
</style>
<g>
	<path class="st0" d="M90.92,219.89c0-42.36,34.34-76.7,76.7-76.7h664.76c42.35,0,76.7,34.34,76.7,76.7
		c0,20.77-11.03,40.43-25.97,53.21L544.02,536.93c-25.87,20.13-62.11,20.13-87.98,0L116.95,273.1
		C100.52,260.32,90.92,240.67,90.92,219.89z M575.42,577.36l333.66-259.67v362.42c0,42.36-34.34,76.7-76.7,76.7H167.62
		c-42.36,0-76.7-34.36-76.7-76.7V317.69l333.72,259.49c22.53,17.56,48.95,26.22,75.36,26.22
		C526.37,603.41,552.89,594.78,575.42,577.36z"/>
</g>
</svg>
