<svg xmlns="http://www.w3.org/2000/svg" width="47" height="47" viewBox="0 0 47 47">
  <mask id="gif-a" fill="#fff">
    <path fill-rule="evenodd" d="m0 0h46v46h-46z"/>
  </mask>
  <g fill="#fff" fill-rule="evenodd" transform="translate(.106 .803)">
    <path d="M7.17675781 40.2329717c0 1.9847742 1.60897654 3.5937495 3.59375029 3.5937495h24.4375029c1.9847737 0 3.5937487-1.6089753 3.5937487-3.5937495v-6.4687505h-31.62500189zm20.12499999-4.3125005c0-.3969543.3217957-.71875.71875-.71875h2.8750002c.3969541 0 .7187498.3217957.7187498.71875s-.3217957.71875-.7187498.71875h-2.1562501v1.4375h.7187499c.3969544 0 .7187501.3217958.7187501.71875s-.3217957.7187502-.7187501.7187502h-.7187499v2.15625c0 .3969543-.3217957.7187498-.7187501.7187498-.3969543 0-.71875-.3217955-.71875-.7187498zm-5.0312492.71875c-.3969542 0-.7187498-.3217957-.7187498-.71875s.3217956-.71875.7187498-.71875h2.8749995c.3969541 0 .7187497.3217957.7187497.71875s-.3217956.71875-.7187497.71875h-.7187499v4.3125001h.7187499c.3969541 0 .7187497.3217955.7187497.7187501 0 .3969543-.3217956.7187498-.7187497.7187498h-2.8749995c-.3969542 0-.7187498-.3217955-.7187498-.7187498 0-.3969546.3217956-.7187501.7187498-.7187501h.7187499v-4.3125001zm-5.0312501-1.4375c.3547277.0006416.7048779.0801213 1.0251176.232695.237655.1061411.3993589.3324723.4227411.5917025.0233836.2592275-.0952081.5108411-.3100333.6577969-.2148266.1469584-.4923146.1662882-.7254429.0505397-.1286993-.0619293-.2695614-.0944581-.4123825-.0952341-.7789452 0-1.4375001.9882813-1.4375001 2.15625 0 1.1679689.6585549 2.1562501 1.4375001 2.1562501.6127351 0 1.1500004-.6091406 1.3521489-1.4374999h-.6333988c-.3969543 0-.7187501-.321796-.7187501-.7187502s.3217958-.71875.7187501-.71875h1.4375001c.3969543 0 .7187501.3217958.7187501.71875 0 1.981953-1.2892585 3.59375-2.8750003 3.59375-1.5857417 0-2.8750002-1.611797-2.8750002-3.59375 0-1.9819529 1.2901564-3.59375 2.8750002-3.59375zM30.718515 3.31250483c-.1239231-.12317701-.2915607-.19226557-.4662889-.19226557h-18.4601948c-2.54736268.00296938-4.61180715 2.06701188-4.61527349 4.61437416v24.39437488h31.64656259v-20.4385533c-.000498-.1747842-.0699-.3423367-.1931553-.4662815zm.1931767 2.05832046l5.6601543 5.66015621h-2.3637879c-1.8199166-.0014864-3.2948804-1.47645077-3.2963664-3.29636798zm-19.1196497-.93258834h17.8007435v3.29636708c.0026403 2.54821437 2.0676524 4.61296047 4.6155691 4.61527357h3.2960726v18.4601951h-29.00875283v-23.07546867c.001885-1.81953883 1.47648179-3.2942905 3.29619363-3.29636708z" mask="url(#gif-a)"/>
    <path d="M16.6346201 13.5385405c.2729119.2411288.6896209.215386.9307798-.0575.2585297-.291304.5397204-.5616784.8409361-.8085911.1902805-.1466995.2857174-.3852784.2491101-.6227387s-.1994654-.4362185-.4250934-.5188006c-.2256279-.0825814-.4783134-.035915-.659561.1218092-.3546152.2915316-.6851174.6112176-.9882852.9559404-.1158498.1307941-.1749743.3022658-.164358.4766685.0106163.1744013.0901042.3374351.2209641.4532123zM18.4772651 24.8094463c-.1809556.3148861-.0728335.71683.24168.8984367.398742.230611.8154745.4286109 1.2461257.592064.340617.128887.7212301-.042701.8501983-.3832861.128968-.340585-.0425283-.7212389-.3830822-.8502905-.3641376-.1382174-.7165416-.3055611-1.0537889-.5004024-.3150248-.1799012-.7161838-.071989-.8984377.2416797zM20.1833663 11.5476646c.0801473.000133.1596352-.0144849.2344908-.0431245.3637974-.13857.7381576-.2476332 1.1194546-.326134.3577682-.0706395.5905331-.4179327.5198944-.7757018-.07064-.357769-.4179331-.59053396-.7757026-.51989454l-.0083325.00004867c-.4524662.0933718-.8965686.22347777-1.32789.38902437-.2975497.1132417-.4717124.422896-.4139465.7359824.0577672.3130857.3309669.5401984.6493366.5397994zM16.8726503 22.1653549c-.194747-.3006782-.5939197-.3908894-.8990398-.203178-.3051215.1877101-.4045794.5846781-.2240076.894078 0 .005389.0062897.0107795.0098829.0152719.2465494.3884327.5238525.7564691.829244 1.1005695.1564933.1765619.3953012.2562114.6264499.2089398.2311487-.0472743.4195128-.2142836.4941217-.4381088.0746088-.2238252.0241266-.4704542-.1324269-.6469612-.2591906-.2909173-.4946824-.6021131-.7042201-.9306057zM15.1575113 17.0388597c.1696716.0419965.349082.0147208.4986081-.0758029.1495248-.090525.2568612-.2368489.298305-.4066576.0926321-.3784991.2155134-.7489483.3674618-1.1077723.1424084-.3349318-.0136625-.7218909-.3485927-.8642993-.3349315-.1424071-.7218902.0136638-.8642985.3485942-.1805949.4243862-.3263236.8627748-.4357425 1.3108215-.0856912.3532663.1310586.7091523.4842588.7951164zM14.6786691 20.3423863c.0517394.233649.2259954.4209313.4553139.4893518.2293185.0684194.4777077.007237.6490135-.1598627.1713072-.1670998.2386449-.4138904.1759464-.6448387-.0934685-.3782592-.1562616-.7634386-.1877718-1.1517945-.0343879-.35528-.3452123-.6187106-.7013233-.594388-.3561109.0243226-.6282305.3275712-.6139909.6842276v.0152733c.0372818.4593016.1117961.91481.2228149 1.3620435zM23.8625151 11.0822123c.3867768.0459659.7692407.1228799 1.143715.2299998.3491591.0978998.7118518-.1044795.8118979-.4530305.1000434-.3485504-.1001036-.7124809-.4480345-.8146649-.4427316-.12605141-.8949117-.21618717-1.3521394-.26952915-.3546016-.03052736-.6694497.22583425-.7114159.57926295-.0419689.3534287.204087.6763945.5559769.7297584zM23.8787232 25.4833204c-.3875032.0461475-.7780305.0617676-1.1679807.0467205-.3639565-.0141396-.6704637.2694464-.6846019.6334032-.0141381.3639595.2694462.6704643.633404.6846039.1123033.0044911.2264052.0062897.3396078.0062897.3465267.0000246.6927437-.0206788 1.0367972-.0619925.2381896-.0230943.4451745-.1734088.5408364-.3927623.0956619-.2193534.0649836-.4733168-.080157-.6635823-.1451433-.1902656-.3819673-.2869694-.6188024-.2526802zM29.8766402 15.9724066c.121978.336951.4907139.5148234.8303591.4005501.3396425-.1142719.5258695-.478859.4193663-.8210181h.0000027c-.1472355-.4361677-.3293058-.8597943-.544448-1.2667823-.170253-.3224221-.569615-.4458229-.89208-.2756482-.322465.1701762-.4459619.5695089-.2758651.8920134.1822156.3442058.3369226.7022866.4626678 1.0708919zM27.121099 24.2514573c-.3201261.2216373-.6575256.4172273-1.0089467.5848838-.2135353.0992975-.3578535.3049912-.3785734.5395726-.0207171.2345787.0853116.462385.2781352.597573.1928236.1351879.4431294.1572101.6565961.0577646l.0098568-.0044803c.4158154-.1975147.8148455-.4285784 1.1931336-.6909042.2083697-.1261646.3302186-.3569212.3169072-.6001448-.0133143-.2432264-.159623-.4593033-.3805172-.5619733-.2208944-.1026699-.4803961-.0752079-.6749116.0714188l-.0089848.0062898zM30.3142157 21.376488c-.1546137-.0816375-.3353488-.0984394-.5023665-.0467-.167015.0517394-.3065981.1677716-.3879862.322521-.1812504.3456715-.3900672.6761697-.6244184.9882869-.2158523.2892312-.1591131.6982468.1273189.9178002.2864321.2195535.6961444.1680816.9193639-.1155042l.0071863-.0089823c.2767754-.3689248.5234401-.7595031.7376116-1.1679634.0815744-.1547261.0982448-.3355459.046334-.5025773-.0519136-.1670313-.1681392-.3065499-.3230464-.3877802zM30.2521591 18.2661058v.0170706c.0012667.3910689-.0287754.7816402-.0898411 1.1679425-.043381.2352381.0440199.4755224.2283988.6279137.1843788.15239.4368233.192988.6596863.1060903.2228603-.0868975.3811919-.2876641.413751-.5246418.0728829-.454276.1095355-.9136229.1096069-1.3737047v-.017076c.000244-.2357685-.1253943-.4537276-.3295307-.5716791-.2041336-.1179514-.4557117-.1179514-.6598454 0-.2041364.1179515-.3297746.3359106-.3295306.5716723zM27.1085347 12.3085827c.3209647.2211299.6237952.4674819.9056233.7367169.2634856.252713.6819327.2440323.9347086-.0193901.2527787-.2634223.2441996-.6818711-.0191625-.9347129-.3325298-.3179804-.6897413-.6090999-1.0682842-.8706236-.300445-.2079035-.7125449-.1328834-.9204483.1675624-.2079034.3004452-.132882.7125438.1675631.9204473zM20.6757538 15.0856647c-.1941449.1202409-.3123856.3322585-.3126557.5606255v5.2747277c.0007006.2282036.1191715.4398676.3133193.559792.1941477.1199244.436454.1311093.6408232.0295814l5.2765178-2.6369137c.2234029-.1117096.3645183-.3400492.3645183-.5898242 0-.2497752-.1411154-.478115-.3645183-.5898245l-5.2738254-2.6369149c-.2050149-.1035638-.4492061-.092665-.6441792.0287507z" mask="url(#gif-a)"/>
  </g>
</svg>
