<svg xmlns="http://www.w3.org/2000/svg" width="42" height="34" viewBox="0 0 42 34">
  <g fill="none" fill-rule="evenodd" transform="translate(1.5 .803)">
    <path stroke="#fff" stroke-linecap="round" stroke-linejoin="round" stroke-width="2" d="m5.6115158 5.61486816-2.81031211.00718767c-1.13481891.00297075-2.05333742.92349776-2.0538282 2.05832087v22.24082c0 1.1372761.92194406 2.0592225 2.05921924 2.0592225h29.16687467c1.1369217 0 2.0587228-.9213979 2.0592187-2.0583236 0-.6891006 0-1.4653507-.0062891-2.1867945"/>
    <g fill="#fff">
      <path d="m14.1367874 12.1456451c1.7967173 0 3.2532425-1.4565267 3.2532425-3.25324303 0-1.79671631-1.4565279-3.25324191-3.2532438-3.25324191s-3.2532412 1.45652841-3.2532412 3.25324443c.0018603 1.79567441 1.4571286 3.25113781 3.2530218 3.25324051z"/>
      <path d="m36.9507981.41113281h-29.51637156c-1.27124733 0-2.30179715 1.03054904-2.30179715 2.3017965v22.69183619c0 .6106308.24263271 1.1962377.67449788 1.6279333.43186439.4316989 1.01756655.6738632 1.62819664.6738632h29.51547419c1.2712467 0 2.3017959-1.030549 2.3017959-2.3017965v-22.69183619c-.0004393-1.27204192-1.0313444-2.30223519-2.3025911-2.3017965zm-29.10937883 2.16972661h28.69879193c.5280962.0004949.9559402.42874019.9559402.95683551v13.57988677l-6.0428924-7.0509397c-.6405876-.75199177-1.5686723-1.15359309-2.5650395-1.17695385-.9885683.00511378-1.9242696.44714597-2.5560548 1.20750055l-7.1048469 8.5279712-2.3143748-2.3089858c-1.3107667-1.308827-3.4338825-1.308827-4.7446492 0l-5.279219 5.2774207v-18.05859509c.00147784-.52703148.42888143-.95364128.95592528-.95414029z"/>
    </g>
  </g>
</svg>
