<?xml version="1.0" encoding="utf-8"?>
<!-- Generator: Adobe Illustrator 19.0.0, SVG Export Plug-In . SVG Version: 6.00 Build 0)  -->
<svg version="1.1" id="Layer_1" xmlns="http://www.w3.org/2000/svg" xmlns:xlink="http://www.w3.org/1999/xlink" x="0px" y="0px"
	 viewBox="0 0 206 139" style="enable-background:new 0 0 206 139;" xml:space="preserve">
<style type="text/css">
	.st0{clip-path:url(#SVGID_2_);fill:#FFFFFF;}
	.st1{clip-path:url(#SVGID_4_);fill:#FFFFFF;}
	.st2{clip-path:url(#SVGID_6_);fill:#FFFFFF;}
	.st3{clip-path:url(#SVGID_8_);fill:#FFFFFF;}
	.st4{clip-path:url(#SVGID_10_);fill:#FFFFFF;}
	.st5{clip-path:url(#SVGID_12_);fill:#FFFFFF;}
	.st6{clip-path:url(#SVGID_14_);fill:#FFFFFF;}
	.st7{clip-path:url(#SVGID_16_);fill:#FFFFFF;}
	.st8{clip-path:url(#SVGID_18_);fill:#FFFFFF;}
	.st9{clip-path:url(#SVGID_20_);fill:#FFFFFF;}
	.st10{clip-path:url(#SVGID_22_);fill:#FFFFFF;}
	.st11{clip-path:url(#SVGID_24_);fill:#FFFFFF;}
	.st12{clip-path:url(#SVGID_26_);fill:#FFFFFF;}
	.st13{clip-path:url(#SVGID_28_);fill:#FFFFFF;}
	.st14{clip-path:url(#SVGID_30_);fill:#FFFFFF;}
	.st15{clip-path:url(#SVGID_32_);fill:#FFFFFF;}
	.st16{clip-path:url(#SVGID_34_);fill:#FFFFFF;}
	.st17{clip-path:url(#SVGID_36_);fill:#FFFFFF;}
	.st18{clip-path:url(#SVGID_38_);fill:#FFFFFF;}
</style>
<g>
	<defs>
		<path id="SVGID_1_" d="M147.1,80.5v-8.9c2.5,0,4.5,2,4.5,4.4C151.5,78.5,149.5,80.5,147.1,80.5z M144.7,91.2
			c0,1.8-0.3,3.5-0.8,5.1c-1,3.1-2.9,5.9-5.3,7.9c-2.9,2.4-6.7,3.9-10.8,3.9c-7.5,0-13.9-4.9-16.1-11.8c-0.5-1.6-0.8-3.3-0.8-5.1
			V70.6c2,0.5,4.1,0.7,6.3,0.7c8,0,15.2-3.3,20.4-8.5c0.7-0.7,1.3-1.3,1.9-2c0-0.1,0.1-0.1,0.1-0.2c0.2-0.3,0.4-0.5,0.6-0.8
			c0.1-0.2,0.3-0.3,0.4-0.5c0.2-0.2,0.3-0.4,0.5-0.7c0.1-0.2,0.3-0.4,0.4-0.7c0.1-0.2,0.3-0.4,0.4-0.6c0.2-0.2,0.3-0.5,0.4-0.7
			c0.1-0.2,0.2-0.4,0.3-0.6c0.1-0.3,0.3-0.5,0.4-0.8c0.1-0.2,0.2-0.4,0.3-0.6c0.1-0.3,0.3-0.6,0.4-0.9c0.1-0.2,0.1-0.3,0.2-0.5
			c0.2-0.5,0.4-1,0.6-1.5c0.2,0.9,0.3,1.9,0.3,2.9L144.7,91.2L144.7,91.2z M108.4,80.5c-2.5,0-4.5-2-4.5-4.4c0-2.5,2-4.4,4.5-4.4
			V80.5z M155.9,39.2c-4.6-4.6-11-7.5-18-7.5c-1,0-2,0.1-2.9,0.2c-0.9-0.1-1.8-0.2-2.8-0.2h-9.1c-12.3,0-22.3,10-22.3,22.3v12.2
			v11.1c0,6.9,3.2,13.1,8.2,17.2c1.6,8.9,9.4,15.6,18.7,15.6c4,0,7.7-1.2,10.8-3.4v6.8c0,0.6,0,1.3-0.1,1.9h24.9V57.1
			C163.4,50.2,160.5,43.8,155.9,39.2z"/>
	</defs>
	<use xlink:href="#SVGID_1_"  style="overflow:visible;fill:#FFFFFF;"/>
	<clipPath id="SVGID_2_">
		<use xlink:href="#SVGID_1_"  style="overflow:visible;"/>
	</clipPath>
	<rect x="95.8" y="26.8" class="st0" width="72.5" height="93.7"/>
</g>
<g>
	<defs>
		<circle id="SVGID_3_" cx="124.9" cy="73" r="1.7"/>
	</defs>
	<use xlink:href="#SVGID_3_"  style="overflow:visible;fill:#FFFFFF;"/>
	<clipPath id="SVGID_4_">
		<use xlink:href="#SVGID_3_"  style="overflow:visible;"/>
	</clipPath>
	<rect x="118.2" y="66.3" class="st1" width="13.3" height="13.3"/>
</g>
<g>
	<defs>
		<circle id="SVGID_5_" cx="130.6" cy="73" r="1.7"/>
	</defs>
	<use xlink:href="#SVGID_5_"  style="overflow:visible;fill:#FFFFFF;"/>
	<clipPath id="SVGID_6_">
		<use xlink:href="#SVGID_5_"  style="overflow:visible;"/>
	</clipPath>
	<rect x="124" y="66.3" class="st2" width="13.3" height="13.3"/>
</g>
<g>
	<defs>
		<path id="SVGID_7_" d="M127.7,83.9c-1.9,0-3.4-1.5-3.4-3.4V80h1.2v0.6c0,1.2,1,2.2,2.2,2.2c1.2,0,2.2-1,2.2-2.2V80h1.2v0.6
			C131.1,82.4,129.6,83.9,127.7,83.9z"/>
	</defs>
	<use xlink:href="#SVGID_7_"  style="overflow:visible;fill:#FFFFFF;"/>
	<clipPath id="SVGID_8_">
		<use xlink:href="#SVGID_7_"  style="overflow:visible;"/>
	</clipPath>
	<rect x="119.4" y="75" class="st3" width="16.7" height="13.9"/>
</g>
<g>
	<defs>
		<path id="SVGID_9_" d="M161.6,40.7l11.7-3.3L162,33.6l2.1-8.8l-9.3,4.1l-6.3-8.4l-1.1,10.6c4.7,0.7,8.8,3.1,11.8,6.4
			C160.1,38.5,160.9,39.6,161.6,40.7z"/>
	</defs>
	<use xlink:href="#SVGID_9_"  style="overflow:visible;fill:#FFFFFF;"/>
	<clipPath id="SVGID_10_">
		<use xlink:href="#SVGID_9_"  style="overflow:visible;"/>
	</clipPath>
	<rect x="142.4" y="15.5" class="st4" width="35.8" height="30.2"/>
</g>
<g>
	<defs>
		<path id="SVGID_11_" d="M36.8,71.3c0,2.5,2,4.5,4.5,4.5v-9.1C38.8,66.8,36.8,68.8,36.8,71.3z"/>
	</defs>
	<use xlink:href="#SVGID_11_"  style="overflow:visible;fill:#FFFFFF;"/>
	<clipPath id="SVGID_12_">
		<use xlink:href="#SVGID_11_"  style="overflow:visible;"/>
	</clipPath>
	<rect x="31.8" y="61.8" class="st5" width="14.5" height="19.1"/>
</g>
<g>
	<defs>
		<path id="SVGID_13_" d="M92.4,66.8v9.1c2.5,0,4.5-2,4.5-4.5C96.9,68.8,94.9,66.8,92.4,66.8z"/>
	</defs>
	<use xlink:href="#SVGID_13_"  style="overflow:visible;fill:#FFFFFF;"/>
	<clipPath id="SVGID_14_">
		<use xlink:href="#SVGID_13_"  style="overflow:visible;"/>
	</clipPath>
	<rect x="87.4" y="61.8" class="st6" width="14.5" height="19.1"/>
</g>
<g>
	<defs>
		<path id="SVGID_15_" d="M65.7,34.4c-2.2,0-4.3,0.3-6.3,0.9c-2.2,0.5-4.3,1.3-6.3,2.6l0.6,0.1l25.5,3.8l-12.4,5.9l14.1,8.9
			c2.4-0.1,4.7-0.5,6.8-1.3v18.3l0.2,0.7l-0.2,0.7v25.8c0,9.8-7.9,17.7-17.6,17.7h-6.6c-9.7,0-17.6-7.9-17.6-17.7V74.9l-0.2-0.7
			l0.2-0.7V56.6h32.2l-14.4-9.1l10.4-4.9L52,39.3l-0.6-0.1c-4.4,3.4-7.1,8.4-7.6,13.9c0,0.6-0.1,1.1-0.1,1.7v0.3
			c0,0.5-0.1,1-0.1,1.5h0.1v44.1c0,11,8.9,19.9,19.8,19.9h6.6c10.9,0,19.8-8.9,19.8-19.9V54.8c0-0.2,0-0.4,0-0.5
			c7.3-3.6,12.3-11.1,12.3-19.8L65.7,34.4L65.7,34.4z"/>
	</defs>
	<use xlink:href="#SVGID_15_"  style="overflow:visible;fill:#FFFFFF;"/>
	<clipPath id="SVGID_16_">
		<use xlink:href="#SVGID_15_"  style="overflow:visible;"/>
	</clipPath>
	<rect x="38.7" y="29.4" class="st7" width="68.5" height="96.2"/>
</g>
<g>
	<defs>
		<path id="SVGID_17_" d="M69.7,84.3c0,1.6-1.3,2.9-2.9,2.9s-2.9-1.3-2.9-2.9v-0.8h-1.6v0.8c0,2.5,2,4.5,4.5,4.5s4.5-2,4.5-4.5v-0.8
			h-1.6L69.7,84.3L69.7,84.3z"/>
	</defs>
	<use xlink:href="#SVGID_17_"  style="overflow:visible;fill:#FFFFFF;"/>
	<clipPath id="SVGID_18_">
		<use xlink:href="#SVGID_17_"  style="overflow:visible;"/>
	</clipPath>
	<rect x="57.4" y="78.5" class="st8" width="18.9" height="15.3"/>
</g>
<g>
	<defs>
		<path id="SVGID_19_" d="M60.9,70.2l-9.5,5.3c-0.5,0.3-1.2,0.1-1.5-0.4l-0.1-0.2c-0.3-0.5-0.1-1.2,0.4-1.5l9.5-5.3
			c0.5-0.3,1.2-0.1,1.5,0.4l0.1,0.2C61.6,69.3,61.4,69.9,60.9,70.2z M60.9,74.8l-6.7,3.7c-0.5,0.3-1.1,0.1-1.4-0.3l-0.3-0.4
			c-0.3-0.4-0.1-1,0.4-1.3l6.7-3.7c0.5-0.3,1.1-0.1,1.4,0.3l0.3,0.4C61.5,73.9,61.3,74.5,60.9,74.8z M56.9,83.6
			c4.9,0,8.8-3.9,8.8-8.8c0-4.9-3.9-8.8-8.8-8.8c-4.9,0-8.8,3.9-8.8,8.8C48.1,79.6,52,83.6,56.9,83.6z"/>
	</defs>
	<use xlink:href="#SVGID_19_"  style="overflow:visible;fill:#FFFFFF;"/>
	<clipPath id="SVGID_20_">
		<use xlink:href="#SVGID_19_"  style="overflow:visible;"/>
	</clipPath>
	<rect x="43.1" y="60.9" class="st9" width="27.6" height="27.6"/>
</g>
<g>
	<defs>
		<path id="SVGID_21_" d="M81.8,70.2l-9.5,5.3c-0.5,0.3-1.2,0.1-1.5-0.4l-0.1-0.2c-0.3-0.5-0.1-1.2,0.4-1.5l9.5-5.3
			c0.5-0.3,1.2-0.1,1.5,0.4l0.1,0.2C82.5,69.3,82.3,69.9,81.8,70.2z M81.7,74.8L75,78.5c-0.5,0.3-1.1,0.1-1.4-0.3l-0.3-0.4
			c-0.3-0.4-0.1-1,0.4-1.3l6.7-3.7c0.5-0.3,1.1-0.1,1.4,0.3l0.3,0.4C82.4,73.9,82.2,74.5,81.7,74.8z M77.7,83.6
			c4.9,0,8.8-3.9,8.8-8.8c0-4.9-3.9-8.8-8.8-8.8c-4.9,0-8.8,3.9-8.8,8.8C69,79.6,72.9,83.6,77.7,83.6z"/>
	</defs>
	<use xlink:href="#SVGID_21_"  style="overflow:visible;fill:#FFFFFF;"/>
	<clipPath id="SVGID_22_">
		<use xlink:href="#SVGID_21_"  style="overflow:visible;"/>
	</clipPath>
	<rect x="64" y="60.9" class="st10" width="27.6" height="27.6"/>
</g>
<g>
	<defs>
		<polygon id="SVGID_23_" points="6,1 34,1 34,7 6,7 6,34 0,34 0,1 		"/>
	</defs>
	<use xlink:href="#SVGID_23_"  style="overflow:visible;fill-rule:evenodd;clip-rule:evenodd;fill:#FFFFFF;"/>
	<clipPath id="SVGID_24_">
		<use xlink:href="#SVGID_23_"  style="overflow:visible;"/>
	</clipPath>
	<rect x="-5" y="-4" class="st11" width="44" height="43"/>
</g>
<g>
	<defs>
		<polygon id="SVGID_25_" points="205.5,6.5 205.5,34.5 199.5,34.5 199.5,6.5 172.5,6.5 172.5,0.5 205.5,0.5 		"/>
	</defs>
	<use xlink:href="#SVGID_25_"  style="overflow:visible;fill-rule:evenodd;clip-rule:evenodd;fill:#FFFFFF;"/>
	<clipPath id="SVGID_26_">
		<use xlink:href="#SVGID_25_"  style="overflow:visible;"/>
	</clipPath>
	<rect x="167.5" y="-4.5" class="st12" width="43" height="44"/>
</g>
<g>
	<defs>
		<polygon id="SVGID_27_" points="0.5,132.5 0.5,104.5 6.5,104.5 6.5,132.5 33.5,132.5 33.5,138.5 0.5,138.5 		"/>
	</defs>
	<use xlink:href="#SVGID_27_"  style="overflow:visible;fill-rule:evenodd;clip-rule:evenodd;fill:#FFFFFF;"/>
	<clipPath id="SVGID_28_">
		<use xlink:href="#SVGID_27_"  style="overflow:visible;"/>
	</clipPath>
	<rect x="-4.5" y="99.5" class="st13" width="43" height="44"/>
</g>
<g>
	<defs>
		<polygon id="SVGID_29_" points="200,138 172,138 172,132 200,132 200,105 206,105 206,138 		"/>
	</defs>
	<use xlink:href="#SVGID_29_"  style="overflow:visible;fill-rule:evenodd;clip-rule:evenodd;fill:#FFFFFF;"/>
	<clipPath id="SVGID_30_">
		<use xlink:href="#SVGID_29_"  style="overflow:visible;"/>
	</clipPath>
	<rect x="167" y="100" class="st14" width="44" height="43"/>
</g>
<g>
	<defs>
		<path id="SVGID_31_" d="M34.4,39.2c-0.5,0.2-0.9,0.3-1.5,0.3s-1-0.1-1.5-0.3v6.4h2.9L34.4,39.2L34.4,39.2z"/>
	</defs>
	<use xlink:href="#SVGID_31_"  style="overflow:visible;fill:#FFFFFF;"/>
	<clipPath id="SVGID_32_">
		<use xlink:href="#SVGID_31_"  style="overflow:visible;"/>
	</clipPath>
	<rect x="26.5" y="34.2" class="st15" width="12.9" height="16.4"/>
</g>
<g>
	<defs>
		<path id="SVGID_33_" d="M34.4,31v-6.4h-2.9V31c0.5-0.2,0.9-0.3,1.5-0.3S33.9,30.8,34.4,31z"/>
	</defs>
	<use xlink:href="#SVGID_33_"  style="overflow:visible;fill:#FFFFFF;"/>
	<clipPath id="SVGID_34_">
		<use xlink:href="#SVGID_33_"  style="overflow:visible;"/>
	</clipPath>
	<rect x="26.5" y="19.6" class="st16" width="12.9" height="16.4"/>
</g>
<g>
	<defs>
		<path id="SVGID_35_" d="M43.4,36.6v-2.9h-6.4c0.2,0.5,0.3,0.9,0.3,1.5c0,0.5-0.1,1-0.3,1.5L43.4,36.6L43.4,36.6z"/>
	</defs>
	<use xlink:href="#SVGID_35_"  style="overflow:visible;fill:#FFFFFF;"/>
	<clipPath id="SVGID_36_">
		<use xlink:href="#SVGID_35_"  style="overflow:visible;"/>
	</clipPath>
	<rect x="32.1" y="28.6" class="st17" width="16.4" height="12.9"/>
</g>
<g>
	<defs>
		<path id="SVGID_37_" d="M22.4,33.6v2.9h6.4c-0.2-0.5-0.3-0.9-0.3-1.5c0-0.5,0.1-1,0.3-1.5L22.4,33.6L22.4,33.6z"/>
	</defs>
	<use xlink:href="#SVGID_37_"  style="overflow:visible;fill:#FFFFFF;"/>
	<clipPath id="SVGID_38_">
		<use xlink:href="#SVGID_37_"  style="overflow:visible;"/>
	</clipPath>
	<rect x="17.4" y="28.6" class="st18" width="16.4" height="12.9"/>
</g>
</svg>
