<?xml version="1.0" encoding="utf-8"?>
<!-- Generator: Adobe Illustrator 23.1.0, SVG Export Plug-In . SVG Version: 6.00 Build 0)  -->
<svg version="1.1" id="Layer_1" xmlns="http://www.w3.org/2000/svg" xmlns:xlink="http://www.w3.org/1999/xlink" x="0px" y="0px"
	 viewBox="0 0 1000 900" style="enable-background:new 0 0 1000 900;" xml:space="preserve">
<style type="text/css">
	.st0{fill:#FFFFFF;}
</style>
<g>
	<path class="st0" d="M781.45,142.3c19.06,0,37.35,14.8,37.35,37.16v200.48c0,14.55-11.79,26.34-26.34,26.34H592.25
		c-22.37,0-37.18-18.3-37.18-37.38c0-9.11,3.38-18.41,10.94-25.97l62-62.03c-38.78-31.8-87.74-50.35-139.2-50.35
		c-121.04,0-219.58,98.51-219.58,219.58s98.48,219.53,219.54,219.53c100.5,0,122.9-52.64,158.16-52.64
		c25.39,0,43.93,20.67,43.93,43.92c0,48.15-112.11,96.75-201.99,96.75c-169.56,0-307.66-138.1-307.66-307.66
		s138.14-307.28,307.7-307.28c75.03,0,145.93,28.02,201.17,75.93l65.41-65.45C763.04,145.69,772.38,142.3,781.45,142.3z"/>
</g>
</svg>
