<?xml version="1.0" encoding="utf-8"?>
<svg width="25px" height="23px" viewBox="0 0 25 23" version="1.1" xmlns:xlink="http://www.w3.org/1999/xlink" xmlns="http://www.w3.org/2000/svg">
  <desc>Created with Lunacy</desc>
  <defs>
    <path d="M2.17391 18.6191L12.5003 18.6191C13.0997 18.6191 13.587 19.1095 13.587 19.7143C13.587 20.3191 13.0997 20.8095 12.5003 20.8095L2.17391 20.8095C0.975272 20.8095 0 19.8271 0 18.6191L0 4.38101C0 3.17296 0.975272 2.19054 2.17391 2.19054L4.98478 2.19054L4.6663 1.86963C4.24158 1.44195 4.24158 0.748935 4.6663 0.320972C5.09022 -0.106991 5.77908 -0.106991 6.20326 0.320972L8.37717 2.51144C8.8019 2.93913 8.8019 3.63214 8.37717 4.0601L6.20326 6.25057C5.9913 6.46442 5.71277 6.57148 5.43478 6.57148C5.15679 6.57148 4.87826 6.46442 4.6663 6.25057C4.24158 5.82288 4.24158 5.12987 4.6663 4.70191L4.98478 4.38101L2.17391 4.38101L2.17391 18.6191ZM22.8261 2.19054L12.5003 2.19054C11.8997 2.19054 11.413 2.68093 11.413 3.28577C11.413 3.89062 11.8997 4.38101 12.5003 4.38101L22.8261 4.38101L22.8261 18.6191L20.0152 18.6191L20.3337 18.2982C20.7584 17.8702 20.7584 17.1772 20.3337 16.7495C19.909 16.3218 19.2201 16.3215 18.7967 16.7495L16.6228 18.94C16.1981 19.3679 16.1981 20.0609 16.6228 20.4886L18.7967 22.6791C19.009 22.8929 19.2872 23 19.5652 23C19.8432 23 20.1215 22.8929 20.3337 22.6791C20.7584 22.2511 20.7584 21.5581 20.3337 21.1304L20.0152 20.8095L22.8261 20.8095C24.0245 20.8095 25 19.8271 25 18.6191L25 4.38101C25 3.17296 24.0245 2.19054 22.8261 2.19054ZM12.5003 6.57148C9.80299 6.57148 7.6087 8.78221 7.6087 11.5C7.6087 14.2179 9.80299 16.4286 12.5003 16.4286C15.1973 16.4286 17.3913 14.2179 17.3913 11.5C17.3913 8.78221 15.1973 6.57148 12.5003 6.57148ZM9.78261 11.5C9.78261 13.0098 11.0016 14.2381 12.5003 14.2381C13.9978 14.2381 15.2174 13.0098 15.2174 11.5C15.2174 9.99025 13.9978 8.76195 12.5003 8.76195C11.0016 8.76195 9.78261 9.99025 9.78261 11.5Z" id="path_1" />
    <clipPath id="mask_1">
      <use xlink:href="#path_1" />
    </clipPath>
  </defs>
  <g id="noun_Flip-Camera_534701">
    <path d="M2.17391 18.6191L12.5003 18.6191C13.0997 18.6191 13.587 19.1095 13.587 19.7143C13.587 20.3191 13.0997 20.8095 12.5003 20.8095L2.17391 20.8095C0.975272 20.8095 0 19.8271 0 18.6191L0 4.38101C0 3.17296 0.975272 2.19054 2.17391 2.19054L4.98478 2.19054L4.6663 1.86963C4.24158 1.44195 4.24158 0.748935 4.6663 0.320972C5.09022 -0.106991 5.77908 -0.106991 6.20326 0.320972L8.37717 2.51144C8.8019 2.93913 8.8019 3.63214 8.37717 4.0601L6.20326 6.25057C5.9913 6.46442 5.71277 6.57148 5.43478 6.57148C5.15679 6.57148 4.87826 6.46442 4.6663 6.25057C4.24158 5.82288 4.24158 5.12987 4.6663 4.70191L4.98478 4.38101L2.17391 4.38101L2.17391 18.6191ZM22.8261 2.19054L12.5003 2.19054C11.8997 2.19054 11.413 2.68093 11.413 3.28577C11.413 3.89062 11.8997 4.38101 12.5003 4.38101L22.8261 4.38101L22.8261 18.6191L20.0152 18.6191L20.3337 18.2982C20.7584 17.8702 20.7584 17.1772 20.3337 16.7495C19.909 16.3218 19.2201 16.3215 18.7967 16.7495L16.6228 18.94C16.1981 19.3679 16.1981 20.0609 16.6228 20.4886L18.7967 22.6791C19.009 22.8929 19.2872 23 19.5652 23C19.8432 23 20.1215 22.8929 20.3337 22.6791C20.7584 22.2511 20.7584 21.5581 20.3337 21.1304L20.0152 20.8095L22.8261 20.8095C24.0245 20.8095 25 19.8271 25 18.6191L25 4.38101C25 3.17296 24.0245 2.19054 22.8261 2.19054ZM12.5003 6.57148C9.80299 6.57148 7.6087 8.78221 7.6087 11.5C7.6087 14.2179 9.80299 16.4286 12.5003 16.4286C15.1973 16.4286 17.3913 14.2179 17.3913 11.5C17.3913 8.78221 15.1973 6.57148 12.5003 6.57148ZM9.78261 11.5C9.78261 13.0098 11.0016 14.2381 12.5003 14.2381C13.9978 14.2381 15.2174 13.0098 15.2174 11.5C15.2174 9.99025 13.9978 8.76195 12.5003 8.76195C11.0016 8.76195 9.78261 9.99025 9.78261 11.5Z" id="BACK" fill="#C4CCD3" fill-rule="evenodd" stroke="none" />
    <path d="M2.17391 18.6191L12.5003 18.6191C13.0997 18.6191 13.587 19.1095 13.587 19.7143C13.587 20.3191 13.0997 20.8095 12.5003 20.8095L2.17391 20.8095C0.975272 20.8095 0 19.8271 0 18.6191L0 4.38101C0 3.17296 0.975272 2.19054 2.17391 2.19054L4.98478 2.19054L4.6663 1.86963C4.24158 1.44195 4.24158 0.748935 4.6663 0.320972C5.09022 -0.106991 5.77908 -0.106991 6.20326 0.320972L8.37717 2.51144C8.8019 2.93913 8.8019 3.63214 8.37717 4.0601L6.20326 6.25057C5.9913 6.46442 5.71277 6.57148 5.43478 6.57148C5.15679 6.57148 4.87826 6.46442 4.6663 6.25057C4.24158 5.82288 4.24158 5.12987 4.6663 4.70191L4.98478 4.38101L2.17391 4.38101L2.17391 18.6191ZM22.8261 2.19054L12.5003 2.19054C11.8997 2.19054 11.413 2.68093 11.413 3.28577C11.413 3.89062 11.8997 4.38101 12.5003 4.38101L22.8261 4.38101L22.8261 18.6191L20.0152 18.6191L20.3337 18.2982C20.7584 17.8702 20.7584 17.1772 20.3337 16.7495C19.909 16.3218 19.2201 16.3215 18.7967 16.7495L16.6228 18.94C16.1981 19.3679 16.1981 20.0609 16.6228 20.4886L18.7967 22.6791C19.009 22.8929 19.2872 23 19.5652 23C19.8432 23 20.1215 22.8929 20.3337 22.6791C20.7584 22.2511 20.7584 21.5581 20.3337 21.1304L20.0152 20.8095L22.8261 20.8095C24.0245 20.8095 25 19.8271 25 18.6191L25 4.38101C25 3.17296 24.0245 2.19054 22.8261 2.19054ZM12.5003 6.57148C9.80299 6.57148 7.6087 8.78221 7.6087 11.5C7.6087 14.2179 9.80299 16.4286 12.5003 16.4286C15.1973 16.4286 17.3913 14.2179 17.3913 11.5C17.3913 8.78221 15.1973 6.57148 12.5003 6.57148ZM9.78261 11.5C9.78261 13.0098 11.0016 14.2381 12.5003 14.2381C13.9978 14.2381 15.2174 13.0098 15.2174 11.5C15.2174 9.99025 13.9978 8.76195 12.5003 8.76195C11.0016 8.76195 9.78261 9.99025 9.78261 11.5Z" id="BACK-Copy" fill="#C4CCD3" fill-rule="evenodd" stroke="none" />
  </g>
</svg>