<svg height="49" viewBox="0 0 56 49" width="56" xmlns="http://www.w3.org/2000/svg"><path d="m22.5064569 45.7079473c.0592177 1.077399.7698304 1.9752316 1.7173139 2.3343646.2960886.119711.5921772.1795665.8882658.1795665.7106127 0 1.4212253-.2992775 1.9541848-.8978325l5.2111595-5.805984 9.9485771 7.0030941c.4737418.2992775 1.0067013.478844 1.5988785.478844 1.3027899 0 2.4279266-.9576881 2.7240152-2.2146537l9.4156177-44.95148379c.1184354-.53869954-.0592178-1.13725458-.5329595-1.49638761-.4145241-.35913302-1.0067013-.41898853-1.5396608-.23942202l-52.2300301 23.10422472c-1.06591898.478844-1.71731391 1.5562431-1.65809619 2.7533532s.8290481 2.1547982 1.9541848 2.5139312l19.95637209 6.1052614zm2.960886-.9576881-.414524-8.3199151 4.8558531 3.4117637zm18.2982759 1.1372546-18.1206227-12.6295115 26.2926682-26.51598842zm5.0335063-40.222899-25.8781442 26.0969999-19.66028342-5.9855504z" fill="#fff"/></svg>