<svg height="43" viewBox="0 0 38 43" width="38" xmlns="http://www.w3.org/2000/svg"><path d="m222.5 631.371216c2.1875 0 4.046875-.765625 5.578125-2.296875s2.296875-3.390625 2.296875-5.578125-.765625-4.046875-2.296875-5.578125-3.390625-2.296875-5.578125-2.296875c-2.351562 0-4.320312.875-5.90625 2.625l-7.792969-4.839844c.820313-2.023437.820313-4.046875 0-6.070312l7.792969-4.839844c1.585938 1.75 3.554688 2.625 5.90625 2.625 2.1875 0 4.046875-.765625 5.578125-2.296875s2.296875-3.390625 2.296875-5.578125-.765625-4.046875-2.296875-5.578125-3.390625-2.296875-5.578125-2.296875-4.046875.765625-5.578125 2.296875-2.296875 3.390625-2.296875 5.578125c0 1.039062.191406 2.050781.574219 3.035156l-7.792969 4.839844c-1.585938-1.75-3.554688-2.625-5.90625-2.625-2.1875 0-4.046875.765625-5.578125 2.296875s-2.296875 3.390625-2.296875 5.578125.765625 4.046875 2.296875 5.578125 3.390625 2.296875 5.578125 2.296875c2.351562 0 4.320312-.875 5.90625-2.625l7.792969 4.839844c-.382813.984375-.574219 1.996093-.574219 3.035156 0 2.1875.765625 4.046875 2.296875 5.578125s3.390625 2.296875 5.578125 2.296875zm0-28.875c-1.421875 0-2.652344-.519531-3.691406-1.558594-1.039063-1.039062-1.558594-2.269531-1.558594-3.691406s.519531-2.652344 1.558594-3.691406c1.039062-1.039063 2.269531-1.558594 3.691406-1.558594s2.652344.519531 3.691406 1.558594c1.039063 1.039062 1.558594 2.269531 1.558594 3.691406s-.519531 2.652344-1.558594 3.691406c-1.039062 1.039063-2.269531 1.558594-3.691406 1.558594zm-21 13.125c-1.421875 0-2.652344-.519531-3.691406-1.558594-1.039063-1.039062-1.558594-2.269531-1.558594-3.691406s.519531-2.652344 1.558594-3.691406c1.039062-1.039063 2.269531-1.558594 3.691406-1.558594s2.652344.519531 3.691406 1.558594c1.039063 1.039062 1.558594 2.269531 1.558594 3.691406s-.519531 2.652344-1.558594 3.691406c-1.039062 1.039063-2.269531 1.558594-3.691406 1.558594zm21 13.125c-1.421875 0-2.652344-.519531-3.691406-1.558594-1.039063-1.039062-1.558594-2.269531-1.558594-3.691406s.519531-2.652344 1.558594-3.691406c1.039062-1.039063 2.269531-1.558594 3.691406-1.558594s2.652344.519531 3.691406 1.558594c1.039063 1.039062 1.558594 2.269531 1.558594 3.691406s-.519531 2.652344-1.558594 3.691406c-1.039062 1.039063-2.269531 1.558594-3.691406 1.558594z" fill="#fff" transform="translate(-193 -589)"/></svg>