<svg xmlns="http://www.w3.org/2000/svg" width="62" height="62" viewBox="0 0 62 62">
  <g fill="#fff" fill-rule="evenodd">
    <path d="m12.71 27.808c1.081-8.452 8.383-15.267 17.037-15.54 10.276-.273 18.391 7.906 18.391 17.994 0 9.815-7.574 17.448-17.039 17.994-.541 0-.81.271-.81.817v5.18c0 .273-.271.545-.542.273-10.276-8.996-18.389-16.085-17.037-26.718m-12.71 2.999c0 17.176 13.522 30.807 30.558 30.807 17.038 0 30.56-13.631 30.56-30.807s-13.522-30.807-30.56-30.807c-16.496 0-30.558 13.904-30.558 30.807"/>
    <path d="m20.9515 37.8956v.272c1.623 1.364 9.736 7.634 18.662-.544-1.624.817-9.467 5.179-18.662.272z"/>
  </g>
</svg>
