<svg xmlns="http://www.w3.org/2000/svg" width="346" height="92" viewBox="0 0 346 92">
  <g fill="#fff" fill-rule="evenodd">
    <path d="M222.8301 25.396c-.248.304-.49.546-.724.725-.235.18-.574.269-1.015.269-.442 0-.905-.171-1.388-.517-.482-.345-1.09-.718-1.821-1.119-.733-.4-1.615-.773-2.65-1.117-1.036-.345-2.312-.519-3.831-.519-1.987 0-3.741.36-5.258 1.077-1.519.719-2.782 1.74-3.79 3.064-1.008 1.325-1.774 2.94-2.298 4.846-.525 1.904-.786 4.044-.786 6.417 0 2.458.275 4.645.828 6.564.551 1.919 1.338 3.535 2.36 4.845 1.02 1.311 2.264 2.305 3.727 2.982 1.463.676 3.09 1.014 4.886 1.014 1.739 0 3.174-.213 4.306-.641 1.133-.428 2.071-.891 2.816-1.388s1.367-.958 1.865-1.387c.496-.428 1.006-.642 1.531-.642.663 0 1.173.248 1.532.745l2.318 2.982c-.966 1.188-2.049 2.195-3.25 3.023s-2.477 1.505-3.831 2.028c-1.352.526-2.767.912-4.244 1.161-1.476.247-2.974.372-4.492.372-2.623 0-5.073-.484-7.35-1.45-2.278-.965-4.252-2.374-5.921-4.223-1.671-1.849-2.99-4.12-3.956-6.813-.966-2.691-1.448-5.748-1.448-9.172 0-3.118.434-6.003 1.304-8.653.869-2.651 2.153-4.935 3.851-6.854 1.698-1.918 3.789-3.423 6.273-4.513s5.328-1.636 8.53-1.636c3.01 0 5.659.483 7.95 1.449 2.291.967 4.335 2.333 6.129 4.1zM255.583 40.9243c-3.285.111-6.073.366-8.364.766-2.291.401-4.156.932-5.59 1.595-1.437.662-2.471 1.442-3.106 2.339-.635.898-.952 1.898-.952 3.003 0 1.048.171 1.953.517 2.712.345.759.814 1.38 1.408 1.863.593.483 1.291.835 2.091 1.055.8.223 1.67.332 2.608.332 1.243 0 2.382-.123 3.417-.372s2.009-.601 2.92-1.057c.91-.455 1.78-1.014 2.609-1.676.828-.663 1.641-1.422 2.442-2.278zm-23.686-17.516c2.346-2.235 4.893-3.906 7.64-5.01s5.763-1.657 9.049-1.657c2.401 0 4.526.394 6.377 1.181 1.849.786 3.408 1.883 4.678 3.291 1.27 1.409 2.229 3.093 2.879 5.052.648 1.961.973 4.128.973 6.502v26.833h-3.602c-.801 0-1.41-.131-1.823-.393-.414-.262-.746-.752-.994-1.471l-.87-3.686c-1.076.995-2.14 1.872-3.187 2.63-1.05.76-2.148 1.408-3.292 1.947-1.146.538-2.369.945-3.665 1.221-1.298.276-2.734.414-4.307.414-1.657 0-3.209-.228-4.658-.682-1.45-.457-2.712-1.154-3.789-2.092-1.077-.939-1.926-2.112-2.547-3.52-.621-1.407-.931-3.05-.931-4.927 0-1.657.447-3.251 1.345-4.783.896-1.533 2.36-2.906 4.389-4.121 2.029-1.214 4.679-2.208 7.951-2.981 3.271-.772 7.295-1.214 12.07-1.325v-3.064c0-3.174-.676-5.549-2.028-7.122-1.353-1.574-3.34-2.361-5.963-2.361-1.768 0-3.25.221-4.452.662-1.202.442-2.237.932-3.106 1.471-.869.538-1.629 1.028-2.277 1.47-.649.441-1.319.662-2.009.662-.553 0-1.028-.151-1.429-.455-.399-.304-.723-.663-.972-1.077zM274.3418 59.6001v-42.072h4.845c1.132 0 1.835.539 2.112 1.615l.579 4.017c1.547-1.849 3.265-3.361 5.156-4.535 1.89-1.173 4.105-1.759 6.646-1.759 2.788 0 5.052.766 6.791 2.298 1.739 1.533 3.009 3.609 3.809 6.232.607-1.491 1.394-2.774 2.361-3.851.966-1.077 2.043-1.96 3.23-2.65 1.187-.689 2.45-1.2 3.788-1.532 1.339-.332 2.699-.497 4.079-.497 2.237 0 4.231.352 5.984 1.056 1.753.703 3.236 1.732 4.451 3.085s2.14 3.023 2.774 5.01c.635 1.988.954 4.252.954 6.791v26.792h-8.117v-26.792c0-3.147-.683-5.521-2.049-7.122-1.368-1.601-3.362-2.402-5.984-2.402-1.159 0-2.263.201-3.313.601-1.05.401-1.967 1.001-2.753 1.801-.787.801-1.408 1.795-1.864 2.982-.456 1.186-.683 2.567-.683 4.14v26.792h-8.116v-26.792c0-3.257-.65-5.658-1.947-7.205-1.298-1.545-3.203-2.319-5.713-2.319-1.741 0-3.355.456-4.846 1.367-1.491.91-2.858 2.153-4.1 3.727v31.222zM335.9424 2.6108h-2.59v7.086h-1.075v-7.086h-2.595v-.909h6.26zM345.165 1.7017v7.996h-.948v-5.876c0-.078.004-.162.009-.251s.01-.181.018-.274l-2.745 5c-.085.167-.215.251-.39.251h-.155c-.176 0-.306-.084-.392-.251l-2.801-5.022c.022.198.034.379.034.547v5.876h-.948v-7.996h.797c.096 0 .169.009.224.027.05.019.102.072.15.157l2.761 4.921c.045.09.088.183.132.279.043.096.082.195.119.295.038-.1.076-.2.117-.298.042-.098.085-.193.135-.282l2.711-4.915c.045-.085.094-.138.149-.157.052-.018.129-.027.226-.027zM158.9648 16.9346c-2.408 0-4.429.595-6.066 1.784-1.637 1.191-3.226 3.366-4.764 6.528v-7.304h-14.167c3.446 5.234 5.297 11.415 5.297 17.916 0 7.57-2.509 14.703-7.124 20.416v6.247h17.169v-14.943c0-7.137.882-12.006 2.645-14.608 1.231-1.847 2.965-2.771 5.204-2.771 1.176 0 2.771.42 4.786 1.26l5.29-12.174c-2.996-1.567-5.752-2.351-8.27-2.351M167.751 62.523h17.086v-44.581h-17.086zm0-49.913h17.086v-11.627h-17.086z"/>
    <path d="m88.5645 32.8604c1.081-8.452 8.383-15.267 17.037-15.54 10.276-.273 18.391 7.906 18.391 17.994 0 9.815-7.574 17.448-17.039 17.994-.54 0-.811.271-.811.817v5.18c0 .273-.27.545-.541.273-10.275-8.996-18.389-16.085-17.037-26.718m-12.711 2.999c0 17.176 13.523 30.807 30.56 30.807s30.559-13.631 30.559-30.807-13.522-30.807-30.559-30.807c-16.497 0-30.56 13.904-30.56 30.807"/>
    <path d="M77.29 51.1216c-1.497.403-2.715.605-3.654.605-1.399 0-2.378-.475-2.938-1.424-.364-.615-.546-1.871-.546-3.77v-15.794h3.823c.724-4.465 2.393-8.712 4.91-12.51h-8.733v-16.959l-17.127 8.773v8.186h-6.296v12.51h6.296v15.679c0 4.976.483 8.573 1.449 10.795.965 2.223 2.456 3.878 4.47 4.969 2.015 1.09 5.149 1.635 9.403 1.635 3.666 0 7.612-.462 11.838-1.386l-.849-7.95c-.752-1.079-1.435-2.2-2.046-3.359M.4531 50.4258l16.958-1.596c.7 2.015 1.679 3.457 2.939 4.324 1.259.868 2.939 1.302 5.037 1.302 2.295 0 4.073-.489 5.332-1.467.979-.727 1.468-1.634 1.468-2.725 0-1.229-.643-2.179-1.93-2.85-.924-.475-3.373-1.062-7.346-1.761-5.934-1.033-10.055-1.991-12.362-2.872-2.31-.88-4.255-2.369-5.836-4.465-1.581-2.097-2.372-4.488-2.372-7.171 0-2.936.854-5.466 2.56-7.592 1.707-2.124 4.058-3.71 7.053-4.759 2.994-1.048 7.01-1.573 12.049-1.573 5.315 0 9.24.407 11.774 1.217 2.532.812 4.645 2.072 6.338 3.779 1.693 1.708 3.1 4.016 4.219 6.927l-16.203 1.594c-.42-1.427-1.119-2.476-2.099-3.148-1.343-.895-2.967-1.343-4.869-1.343-1.932 0-3.338.342-4.219 1.027-.882.684-1.323 1.516-1.323 2.493 0 1.091.56 1.915 1.679 2.473 1.12.56 3.554 1.061 7.304 1.51 5.681.642 9.908 1.537 12.678 2.683 2.771 1.146 4.89 2.782 6.359 4.907s2.205 4.459 2.205 7.003c0 2.572-.778 5.075-2.33 7.506-1.554 2.432-4.003 4.369-7.347 5.808-3.345 1.44-7.899 2.16-13.663 2.16-8.144 0-13.945-1.162-17.4-3.484-3.457-2.323-5.674-5.625-6.653-9.907M6.8486 91.6943v-10.876h-3.87v-1.357h9.28v1.357h-3.889v10.876zM32.4873 91.6943v-5.612h-7.153v5.612h-1.523v-12.233h1.523v5.263h7.153v-5.263h1.522v12.233zM46.4062 91.6943v-12.233h8.015v1.357h-6.493v3.943h6.365v1.357h-6.365v4.219h6.493v1.357zM79.9121 89.9702l.898-1.155c.807.898 2.128 1.742 3.852 1.742 2.183 0 2.88-1.174 2.88-2.109 0-3.155-7.245-1.413-7.245-5.778 0-2.017 1.798-3.393 4.2-3.393 1.871 0 3.319.624 4.347 1.706l-.917 1.119c-.917-1.009-2.202-1.467-3.54-1.467-1.467 0-2.513.788-2.513 1.943 0 2.752 7.245 1.174 7.245 5.741 0 1.779-1.211 3.595-4.512 3.595-2.128 0-3.686-.807-4.695-1.944M110.998 85.5869c0-2.861-1.761-4.971-4.494-4.971-2.751 0-4.493 2.11-4.493 4.971 0 2.843 1.742 4.97 4.493 4.97 2.733 0 4.494-2.127 4.494-4.97m-10.564 0c0-3.613 2.439-6.328 6.07-6.328 3.613 0 6.071 2.715 6.071 6.328s-2.458 6.328-6.071 6.328c-3.631 0-6.07-2.715-6.07-6.328M124 85.5869c0-3.76 2.77-6.328 6.291-6.328 2.164 0 3.668 1.046 4.64 2.421l-1.284.716c-.697-1.028-1.962-1.78-3.356-1.78-2.678 0-4.714 2.054-4.714 4.971 0 2.898 2.036 4.97 4.714 4.97 1.394 0 2.659-.733 3.356-1.779l1.302.715c-1.026 1.394-2.494 2.422-4.658 2.422-3.521 0-6.291-2.568-6.291-6.328M146.429 91.694h1.522v-12.233h-1.522zM164.9521 81.0381l-2.604 6.584h5.19zm4.127 10.656l-1.082-2.714h-6.09l-1.082 2.714h-1.742l4.915-12.233h1.89l4.933 12.233zM181.9521 91.6943v-12.233h1.522v10.876h5.686v1.357zM214.6143 85.5869c0-3.76 2.77-6.328 6.291-6.328 2.164 0 3.668 1.046 4.64 2.421l-1.284.716c-.697-1.028-1.962-1.78-3.356-1.78-2.678 0-4.714 2.054-4.714 4.971 0 2.898 2.036 4.97 4.714 4.97 1.394 0 2.659-.733 3.356-1.779l1.302.715c-1.027 1.394-2.494 2.422-4.658 2.422-3.521 0-6.291-2.568-6.291-6.328M241.5918 81.0381l-2.604 6.584h5.19zm4.127 10.656l-1.082-2.714h-6.09l-1.082 2.714h-1.742l4.915-12.233h1.89l4.933 12.233zM269.0469 91.6943v-10.069l-4.163 10.069h-.624l-4.145-10.069v10.069h-1.522v-12.233h2.183l3.796 9.207 3.815-9.207h2.182v12.233zM282.9648 91.6943v-12.233h8.015v1.357h-6.493v3.943h6.365v1.357h-6.365v4.219h6.493v1.357zM310.1074 83.1475c0-1.375-.99-2.33-2.438-2.33h-3.21v4.678h3.21c1.448 0 2.438-.973 2.438-2.348zm-.091 8.547l-3.118-4.86h-2.439v4.86h-1.523v-12.234h4.915c2.238 0 3.834 1.431 3.834 3.687 0 2.201-1.504 3.411-3.174 3.558l3.302 4.989zM328.2266 81.0381l-2.604 6.584h5.19zm4.127 10.656l-1.082-2.714h-6.09l-1.082 2.714h-1.742l4.915-12.233h1.89l4.933 12.233zM96.8066 42.9478v.272c1.623 1.364 9.735 7.634 18.661-.544-1.624.817-9.466 5.179-18.661.272"/>
  </g>
</svg>
