<svg height="42" viewBox="0 0 156 42" width="156" xmlns="http://www.w3.org/2000/svg" xmlns:xlink="http://www.w3.org/1999/xlink"><mask id="a" fill="#fff"><path d="m.36269999.42659999v.1224c.73034998.61379998 4.38119988 3.4352999 8.39789978-.2448-.73079998.36764999-4.26014989 2.33054994-8.39789978.1224z" fill="#fff" fill-rule="evenodd"/></mask><g fill="none" fill-rule="evenodd"><g fill="#2ba4dd" transform="translate(43.2 18.9)"><path d="m-36.876 14.775h82.554v-33.451h-82.554z" mask="url(#a)"/><path d="m-1.171 3.695h11.466v-4.925h-11.466z" mask="url(#a)"/></g><path d="m100.273542 11.4281997c-.11205.1368-.2205.2457-.3257996.32625-.10575.081-.2583.12105-.45675.12105s-.40725-.07695-.62415-.23265c-.21735-.15525-.49095-.3231-.8199-.50355-.3294-.18-.72675-.34785-1.1925-.50265-.46575-.15525-1.0403999-.23355-1.7239499-.23355-.8946 0-1.68345.162-2.36655.48465-.6830999.32355-1.2514499.783-1.7050499 1.3788-.4536.59625-.79785 1.3229999-1.0341 2.1806999-.2358.8568-.3537 1.8198-.3537 2.8876499 0 1.1061.12375 2.09025.3726 2.9538.24795.8635499.6021 1.5907499 1.06155 2.1802499.4599.58995 1.0188 1.03725 1.6775999 1.3419.65835.3042 1.39095.4563 2.1987.4563.78255 0 1.4282999-.09585 1.9376999-.28845.50985-.1926.93195-.40095 1.2672-.6246.3357-.22365.61515-.4311.83925-.62415.22275-.1926.4527-.2889.68895-.2889.2983496 0 .5278496.1116.6893996.33525l1.0431 1.3419c-.4347.5345999-.92205.9877499-1.4624996 1.3603499-.54045.3726-1.1151.67725-1.7235.9126-.60885.2367-1.2456.4104-1.91025.52245-.6641999.11115-1.3382999.1674-2.0213999.1674-1.18035 0-2.2828499-.2178-3.3074999-.6525-1.0251-.43425-1.9134-1.0683-2.6648999-1.9003499-.7515-.83205-1.34505-1.854-1.77975-3.06585-.4347-1.2109499-.6516-2.5865999-.6516-4.1273999 0-1.4030999.1953-2.7013499.5868-3.8938499.39105-1.1929499.96885-2.2207499 1.73295-3.0842999.7636499-.86309995 1.7050499-1.54034993 2.8228499-2.03084992s2.3975999-.73619998 3.8389499-.73619998c1.3535999 0 2.5460999.21734999 3.5770499.65204998 1.03095.43514999 1.9507496 1.04984997 2.7580496 1.84499992zm14.73903 6.9877348c-1.4787.04995-2.7333.1647-3.76425.3447-1.03095.18045-1.86975.4194-2.5155.71775-.6462.2979-1.1115.6489-1.39725 1.05255-.2862.4040999-.42885.8540999-.42885 1.3513499 0 .4716.0774.87885.23265 1.2204.1557.34155.36675.621.6336.83835s.58095.37575.94095.47475c.36045.10035.75195.1493999 1.17405.1493999.55935 0 1.07145-.0553499 1.53765-.1673999.46575-.11205.90405-.27045 1.31355-.47565.40995-.20475.801-.4563 1.17405-.7542.3726-.29835.7389-.6399 1.09935-1.0251zm-10.6587-7.8821998c1.0557-1.00574995 2.20185-1.75769993 3.438-2.25449992 1.2357-.49679999 2.5929-.74564998 4.0716-.74564998 1.0809 0 2.0367.1773 2.86965.53144999.83205.35369999 1.53405.84734997 2.10555 1.48094996.57105.63404995 1.00305 1.39184995 1.2951 2.27339995.29205.88245.43785 1.8575999.43785 2.9258999v12.0748497h-1.6209c-.36045 0-.63405-.05895-.8199-.17685-.1863-.1179-.3357-.3384-.4473-.66195l-.3915-1.6586999c-.48465.4477499-.963.8423999-1.4346 1.1834999-.4725.342-.96615.6336-1.4814.87615-.5157.2421-1.0656.42525-1.64925.54945-.5841.1242-1.22985.1863-1.9377.1863-.74565 0-1.4445-.1026-2.09655-.3069-.65205-.20565-1.2204-.5193-1.70505-.9414-.4842-.42255-.8667-.9504-1.14615-1.5839999-.279-.63315-.41895-1.3725-.41895-2.21715 0-.74565.20115-1.4629499.60525-2.1523499.4032-.68985 1.06245-1.3077 1.9755-1.85445.91305-.5463 2.10555-.9936 3.5775-1.3414499 1.4724-.3474 3.28275-.5463 5.43195-.59625v-1.3788c0-1.4283-.3042-2.4970499-.9126-3.2048999-.60885-.7083-1.50345-1.06245-2.6838-1.06245-.79515 0-1.4625.09945-2.0034.2979-.54045.1989-1.0062.4194-1.39725.66195-.39105.2421-.73305.4626-1.0251.6615-.2916.19845-.59355.2979-.9036.2979-.24885 0-.4626-.06795-.64305-.20475-.18-.1368-.3258-.29835-.43785-.48465zm19.09971 16.2863096v-18.93239951h2.18025c.5094 0 .8262.24254999.95085.72674998l.26055 1.80764993c.6957-.83204995 1.4688-1.51244994 2.31975-2.04074992.85095-.52784999 1.8477-.79154998 2.990699-.79154998 1.2546 0 2.2734.34469999 3.05595 1.03409997.78255.68984998 1.35405 1.62404993 1.7145 2.80439993.27315-.67095.6273-1.2483 1.062-1.73294996.4347-.48464998.91935-.88199997 1.4535-1.19249997.53415-.31004999 1.1025-.53999998 1.70505-.68939998.60255-.14939999 1.2141-.22364999 1.83555-.22364999 1.0062 0 1.9035.15839999 2.6928.47519999.7884.31634999 1.4562.77939998 2.00295 1.38824996.5463.60884995.96255 1.36034995 1.24785 2.25449995.2862.8946.4293 1.9133999.4293 3.0559499v12.0563997h-3.6522v-12.0563997c0-1.41615-.3078-2.4844499-.9225-3.2048999-.61515-.72045-1.51245-1.0809-2.69235-1.0809-.522 0-1.0188.09045-1.4913.27045-.4725.18045-.8847.45045-1.23885.81045-.35415.36045-.6336.80775-.83835 1.3419-.2052.5336999-.3078 1.1551499-.3078 1.8629999v12.0563997h-3.6522v-12.0563997c0-1.46565-.29205-2.5460999-.8757-3.2422499-.5841-.69525-1.44135-1.04355-2.571299-1.04355-.783 0-1.50975.2052-2.1807.61515-.6705.4095-1.28565.96885-1.84455 1.67715v14.0498996z" fill="#2ba4dd"/><path d="m151.174 1.175h-1.165v3.189h-.484v-3.189h-1.168v-.409h2.817z" fill="#221f1f"/><path d="m155.324066.76576498v3.5981999h-.4266v-2.64419993c0-.03509999.0018-.07289999.00405-.11294999.0027-.04005.00495-.08145.0081-.1233l-1.2348 2.24999994c-.03825.07515-.09675.11295-.17595.11295h-.06975c-.07875 0-.13725-.0378-.17595-.11295l-1.26045-2.25989994c.0099.0891.01485.17055.01485.24614999v2.64419993h-.4266v-3.5981999h.3591c.04275 0 .07605.00405.10035.01215.02295.00855.04635.0324.0675.07065l1.2429 2.21444994c.0198.0405.0396.08235.0594.12555.0189.04319999.0369.08774999.0531.13274999.01755-.045.03465-.09.0531-.13409999.01845-.0441.03825-.08685.06075-.1269l1.21995-2.21174994c.0198-.03825.04185-.0621.0666-.07065.0234-.0081.05805-.01215.10215-.01215zm-83.7899079 6.85480482c-1.0836 0-1.9930499.26774999-2.7296999.80279998-.73665.53594998-1.4517 1.51469996-2.14425 2.93759992v-3.28679991h-6.3746998c1.5507 2.35529991 2.3836499 5.13674991 2.3836499 8.06219981 0 3.4064999-1.1290499 6.6163498-3.2057999 9.1871997v2.81115h7.7260498v-6.7243499c0-3.2116499.39645-5.4026998 1.19025-6.5735998.55395-.83115 1.33425-1.24695 2.3417999-1.24695.5292 0 1.24695.189 2.1537.567l2.3800499-5.47829983c-1.34775-.70514998-2.5879499-1.05794997-3.7210499-1.05794997m3.9537899 20.5147795h7.6882498v-20.06144951h-7.6882498zm0-22.46084945h7.6882498v-5.23214986h-7.6882498z" fill="#221f1f"/><path d="m39.8540239 14.7871796c.48645-3.8033999 3.7723499-6.87014981 7.6666498-6.99299981 4.6241999-.12284999 8.2759498 3.55769991 8.2759498 8.09729981 0 4.4167499-3.4082999 7.8515998-7.6675498 8.0972998-.24345 0-.3645.12195-.3645.36765v2.3309999c0 .12285-.12195.24525-.2439.12285-4.6241998-4.0481999-8.2750497-7.2382498-7.6666498-12.0230997m-5.7194998 1.34955c0 7.7291998 6.0848998 13.8631496 13.7510996 13.8631496 7.6670998 0 13.7519997-6.1339498 13.7519997-13.8631496 0-7.72919982-6.0848999-13.86314966-13.7519997-13.86314966-7.4231998 0-13.7510996 6.25679983-13.7510996 13.86314966" fill="#2ba4dd"/><path d="m34.7804991 23.0047194c-.67365.18135-1.22175.27225-1.6443.27225-.62955 0-1.0700999-.21375-1.3220999-.6408-.16425-.27675-.2457-.84195-.2457-1.6965v-7.1072998h1.7203499c.32625-2.0092499 1.07685-3.92039986 2.2095-5.62949982h-3.9298499v-7.63154979l-7.7071498 3.94784989v3.6836999h-2.8332v5.62949982h2.8332v7.0555498c0 2.2392.21735 3.8578499.6516 4.8577499.4346999 1.00035 1.1056499 1.7451 2.0123999 2.23605.9063.4904999 2.3165999.7357499 4.2308999.7357499 1.6496999 0 3.4253999-.2079 5.3266498-.6236999l-.3815999-3.5774999c-.3384-.48555-.64575-.99-.9207-1.51155m-34.5768291-.31311 7.63154979-.7182c.31499999.90675.75509998 1.55565 1.32254997 1.9458.56654998.3906 1.32209994.5859 2.26619994.5859 1.03275 0 1.8328499-.22005 2.3993999-.66015.441-.32715.66105-.7353.66105-1.22625 0-.55305-.2898-.98055-.86895-1.2825-.4157999-.21375-1.5178499-.4779-3.3056999-.7924499-2.6698499-.46485-4.52429985-.89595-5.56289983-1.2924-1.03904997-.396-1.91429995-1.06605-2.62574993-2.00925-.71144998-.9436499-1.06784997-2.0195999-1.06784997-3.2269499 0-1.3211999.38429999-2.4596999 1.15244997-3.4163999.76814998-.95579996 1.82609995-1.66949994 3.17339992-2.14154992 1.34774996-.47159999 3.15494991-.70784999 5.42204984-.70784999 2.3922 0 4.1584499.18315 5.2982999.54764999 1.1398499.36539999 2.0902499.93239998 2.8525499 1.70054996.7614.76859996 1.39455 1.80719996 1.8985499 3.11714996l-7.2913498.7172999c-.189-.6421499-.5039999-1.1141999-.9449999-1.4165999-.60435-.40275-1.3347-.60435-2.19105-.60435-.86894995 0-1.50164994.1539-1.89854993.46215-.39644999.3078-.59489998.6822-.59489998 1.1218499 0 .49095.25154999.86175.75509998 1.11285.50399999.252 1.59974993.47745 3.28724993.6795 2.5564499.2889 4.4581499.69165 5.7046498 1.20735 1.24695.5157 2.20095 1.2518999 2.862 2.2081499.6610499.95625.9917999 2.00655.9917999 3.1513499 0 1.1574-.34965 2.28375-1.0484999 3.3776999-.69885 1.0944-1.8009 1.96605-3.3057 2.6136-1.5052499.6479999-3.5549999.9719999-6.1487998.9719999-3.6647999 0-6.27479983-.5228999-7.82954978-1.5677999-1.55564996-1.04535-2.55374994-2.53125-2.99429992-4.4581499" fill="#221f1f"/><g fill="#231f20"><path d="m3.082 41.262v-4.894h-1.742v-.61h4.176v.61h-1.75v4.894z"/><path d="m14.619 41.262v-2.525h-3.219v2.525h-.685v-5.504h.685v2.368h3.219v-2.368h.685v5.504z"/><path d="m20.883 41.262v-5.504h3.607v.61h-2.922v1.775h2.864v.61h-2.864v1.899h2.922v.61z"/><path d="m35.960444 40.4865889.4041-.51975c.36315.4041.9576.7839 1.7334.7839.98235 0 1.296-.5283 1.296-.94905 0-1.4197499-3.26025-.6358499-3.26025-2.6000999 0-.90765.8091-1.5268499 1.89-1.5268499.84195 0 1.49355.2807999 1.9561499.7676999l-.4126499.50355c-.41265-.45405-.9909-.66015-1.593-.66015-.66015 0-1.13085.3546-1.13085.87435 0 1.2384 3.2602499.5283 3.2602499 2.5834499 0 .80055-.5449499 1.61775-2.0303999 1.61775-.9576 0-1.6587-.36315-2.11275-.8748m13.9886547-1.9724849c0-1.28745-.79245-2.23695-2.0223-2.23695-1.2379499 0-2.0218499.9495-2.0218499 2.23695 0 1.2793499.7839 2.2364999 2.0218499 2.2364999 1.22985 0 2.0223-.95715 2.0223-2.2364999m-4.7537999 0c0-1.62585 1.09755-2.8475999 2.7314999-2.8475999 1.62585 0 2.73195 1.2217499 2.73195 2.8475999 0 1.6258499-1.1061 2.8475999-2.73195 2.8475999-1.6339499 0-2.7314999-1.22175-2.7314999-2.8475999m10.6046997 0c0-1.692 1.2465-2.8475999 2.8309499-2.8475999.9738 0 1.6506.4706999 2.088 1.0894499l-.5778.3222c-.31365-.4626-.8829-.801-1.5102-.801-1.2050999 0-2.1212999.9243-2.1212999 2.23695 0 1.3040999.9162 2.2364999 2.1212999 2.2364999.6273 0 1.19655-.32985 1.5102-.80055l.5859.32175c-.4617.6273-1.1223 1.0899-2.0961 1.0899-1.5844499 0-2.8309499-1.1556-2.8309499-2.8475999"/><path d="m65.893 41.262h.685v-5.505h-.685z"/><path d="m74.228443 36.467144-1.1717999 2.9628h2.3354999zm1.85715 4.7951999-.4869-1.2213h-2.7404999l-.4869 1.2213h-.7839l2.2117499-5.5048498h.8505l2.21985 5.5048498z"/><path d="m81.878 41.262v-5.504h.685v4.894h2.559v.61z"/><path d="m96.5764324 38.514104c0-1.692 1.2465-2.8475999 2.83095-2.8475999.9737996 0 1.6505996.4706999 2.0879996 1.0894499l-.5778.3222c-.31365-.4626-.8829-.801-1.5101996-.801-1.2051 0-2.1213.9243-2.1213 2.23695 0 1.3040999.9162 2.2364999 2.1213 2.2364999.6272996 0 1.1965496-.32985 1.5101996-.80055l.5859.32175c-.46215.6273-1.1223 1.0899-2.0960996 1.0899-1.58445 0-2.83095-1.1556-2.83095-2.8475999m12.1398746-2.04696-1.1718 2.9628h2.3355zm1.85715 4.7951999-.4869-1.2213h-2.7405l-.4869 1.2213h-.7839l2.21175-5.5048498h.8505l2.21985 5.5048498z"/><path d="m121.071 41.262v-4.531l-1.873 4.531h-.281l-1.865-4.531v4.531h-.685v-5.504h.982l1.708 4.143 1.717-4.143h.982v5.504z"/><path d="m127.334 41.262v-5.504h3.607v.61h-2.922v1.775h2.864v.61h-2.864v1.899h2.922v.61z"/><path d="m139.548326 37.416374c0-.61875-.4455-1.0485-1.0971-1.0485h-1.4445v2.1051h1.4445c.6516 0 1.0971-.43785 1.0971-1.0566zm-.04095 3.8461499-1.4031-2.1869999h-1.09755v2.1869999h-.68535v-5.5052998h2.21175c1.0071 0 1.7253.6439499 1.7253 1.6591499 0 .99045-.6768 1.53495-1.4283 1.6011l1.4859 2.2450499zm8.19459-4.7953799-1.1718 2.9628h2.3355zm1.85715 4.7951999-.4869-1.2213h-2.7405l-.4869 1.2213h-.7839l2.21175-5.5048498h.8505l2.21985 5.5048498z"/></g></g></svg>