<?xml version="1.0" encoding="utf-8"?>
<svg width="23px" height="16px" viewBox="0 0 23 16" version="1.1" xmlns:xlink="http://www.w3.org/1999/xlink" xmlns="http://www.w3.org/2000/svg">
  <desc>Created with Lunacy</desc>
  <path d="M21.0234 14.2734Q19.5469 15.75 17.4375 15.75L5.625 15.75Q3.30469 15.75 1.65234 14.0977Q0 12.4453 0 10.125Q0 8.40234 0.966797 6.97852Q1.93359 5.55469 3.51563 4.92188Q3.9375 2.77734 5.64258 1.38867Q7.34766 0 9.5625 0Q11.0039 0 12.2695 0.632813Q13.5352 1.26563 14.4141 2.32031Q14.8008 2.25 15.1875 2.25Q16.7344 2.25 17.877 3.30469Q19.0195 4.35938 19.125 5.90625Q20.6367 6.43359 21.5684 7.75195Q22.5 9.07031 22.5 10.6875Q22.5 12.7969 21.0234 14.2734ZM17.4375 14.0625L5.625 14.0625Q4.00781 14.0625 2.84766 12.9023Q1.6875 11.7422 1.6875 10.125Q1.6875 8.64844 2.6543 7.54102Q3.62109 6.43359 5.0625 6.22266L5.0625 6.1875Q5.0625 4.32422 6.38086 3.00586Q7.69922 1.6875 9.5625 1.6875Q10.9688 1.6875 12.0938 2.46094Q13.2188 3.23438 13.7109 4.46484Q14.3438 3.9375 15.1875 3.9375Q16.1016 3.9375 16.7695 4.60547Q17.4375 5.27344 17.4375 6.1875Q17.4375 6.78516 17.1211 7.3125L17.4375 7.3125Q18.8438 7.3125 19.8281 8.29688Q20.8125 9.28125 20.8125 10.6875Q20.8125 12.0938 19.8281 13.0781Q18.8438 14.0625 17.4375 14.0625ZM10.9688 11.9531Q10.9688 12.375 10.5469 12.375L9.70313 12.375Q9.28125 12.375 9.28125 11.9531L9.28125 7.03125L7.38281 9Q7.06641 9.31641 6.75 9L6.1875 8.4375Q5.87109 8.12109 6.1875 7.80469L9.84375 4.14844Q10.125 3.86719 10.4063 4.14844L14.0625 7.80469Q14.3789 8.12109 14.0625 8.4375L13.5 9Q13.1836 9.31641 12.8672 9L10.9688 7.03125L10.9688 11.9531Z" id="" fill="#48A0F5" fill-rule="evenodd" stroke="none" />
</svg>