<?xml version="1.0" encoding="utf-8"?>
<!-- Generator: Adobe Illustrator 19.0.0, SVG Export Plug-In . SVG Version: 6.00 Build 0)  -->
<svg version="1.1" id="Layer_1" xmlns="http://www.w3.org/2000/svg" xmlns:xlink="http://www.w3.org/1999/xlink" x="0px" y="0px"
	 viewBox="0 0 206 139" style="enable-background:new 0 0 206 139;" xml:space="preserve">
<style type="text/css">
	.st0{clip-path:url(#SVGID_2_);fill:#FFFFFF;}
	.st1{clip-path:url(#SVGID_4_);fill:#FFFFFF;}
	.st2{clip-path:url(#SVGID_6_);fill:#FFFFFF;}
	.st3{clip-path:url(#SVGID_8_);fill:#FFFFFF;}
	.st4{clip-path:url(#SVGID_10_);fill:#FFFFFF;}
	.st5{clip-path:url(#SVGID_12_);fill:#FFFFFF;}
</style>
<g>
	<g>
		<defs>
			<path id="SVGID_1_" d="M173,12.1v74.3c0,0.4-0.3,0.7-0.5,0.7H32.6c-0.2,0-0.5-0.3-0.5-0.7V12.1c0-0.4,0.3-0.7,0.5-0.7h139.9
				C172.7,11.4,173,11.6,173,12.1z M32.6,0.8c-6.1,0-11.1,5-11.1,11.3v74.3c0,6.2,5,11.3,11.1,11.3h139.9c6.1,0,11.1-5,11.1-11.3
				V12.1c0-6.2-5-11.3-11.1-11.3L32.6,0.8L32.6,0.8z"/>
		</defs>
		<use xlink:href="#SVGID_1_"  style="overflow:visible;fill:#FFFFFF;"/>
		<clipPath id="SVGID_2_">
			<use xlink:href="#SVGID_1_"  style="overflow:visible;"/>
		</clipPath>
		<rect x="17.1" y="-3.6" class="st0" width="170.9" height="105.7"/>
	</g>
	<g>
		<defs>
			<path id="SVGID_3_" d="M55.9,138.2c5.2,0,9.7-3.1,11.8-7.6H188v-10.4H67.7c-2-4.4-6.5-7.6-11.8-7.6s-9.7,3.1-11.8,7.6H18v10.4
				h26.2C46.2,135.1,50.7,138.2,55.9,138.2z"/>
		</defs>
		<use xlink:href="#SVGID_3_"  style="overflow:visible;fill:#FFFFFF;"/>
		<clipPath id="SVGID_4_">
			<use xlink:href="#SVGID_3_"  style="overflow:visible;"/>
		</clipPath>
		<rect x="13.6" y="108.3" class="st1" width="178.8" height="34.4"/>
	</g>
	<g>
		<defs>
			<path id="SVGID_5_" d="M103.4,62.1c-1.4,0-2.6-1.2-2.6-2.6c0-0.1,0-0.2,0-0.3h5.1c0,0.1,0,0.2,0,0.3
				C106,61,104.9,62.1,103.4,62.1z M108.7,58H98.2c0,0.2,0,0.5,0,0.8c0,3,2.4,5.4,5.3,5.4c2.9,0,5.3-2.4,5.3-5.4
				C108.7,58.6,108.7,58.3,108.7,58z"/>
		</defs>
		<use xlink:href="#SVGID_5_"  style="overflow:visible;fill:#FFFFFF;"/>
		<clipPath id="SVGID_6_">
			<use xlink:href="#SVGID_5_"  style="overflow:visible;"/>
		</clipPath>
		<rect x="93.8" y="53.6" class="st2" width="19.4" height="15"/>
	</g>
	<g>
		<defs>
			<path id="SVGID_7_" d="M131.9,36.2c-0.5,0.2-0.9,0.3-1.4,0.4c0,0,0,0-0.1,0c-3.7,0.9-7.6,0.8-11.2-0.5l-0.2-0.1
				c-0.1-0.4-0.2-0.7-0.3-1.1c0.3-0.8,0.7-1.5,1.3-2.2c1.5-1.8,3.6-2.8,6.2-3h0l0.1,0h0.1c0.1,0,0.3,0,0.4,0c0,0,0,0,0,0
				c0.4,0,0.9,0,1.3,0c0.2,0,0.4,0,0.6,0.1c2.9,0.3,5.8,1.6,8.3,3.6C135.5,34.7,133.8,35.6,131.9,36.2z M84.6,57.4
				c-3,0-5.5-2.5-5.5-5.5c0-3.2,2.7-5.7,5.9-5.5c-0.5,1.8-0.7,3.6-0.7,5.4c0,1.9,0.3,3.8,0.8,5.6C84.9,57.4,84.7,57.4,84.6,57.4z
				 M123.6,46.7c0.3,0,0.5,0,0.8,0c3,0,5.5,2.5,5.5,5.6c0,3.1-2.5,5.5-5.5,5.5c-0.3,0-0.7,0-1-0.1c0.6-1.9,0.9-3.9,0.9-5.9
				C124.3,50,124,48.3,123.6,46.7z M103.8,70.3c-7.7-0.2-14.6-5.2-17.1-12.6c-0.6-1.9-1-3.9-1-5.9c0-1.9,0.3-3.7,0.8-5.5l0.1-0.2h24
				c0,0,0,0,0.1,0l0.3-1.5l0,0l0.2-0.7l0-0.2l1.3-5l1.7,5l0-0.1l0.8,2.5h6.6c0.1,0,0.2,0,0.3-0.1c0,0.1,0,0.3,0,0.4
				c0.5,1.7,0.8,3.5,0.8,5.4c0,2.1-0.4,4.1-1,6.1l-0.1,0.3c-2.7,7.3-9.6,12.1-17.3,12.1H103.8z M119.6,22.6c0.2-0.5,0.4-0.9,0.6-1.4
				c0.7-1.4,1.5-2.7,2.5-3.9c2,2.9,3.1,6.3,3,9.5c0,0.5,0,1-0.1,1.5c-2.8,0.3-5.2,1.6-6.8,3.6c-0.2,0.2-0.3,0.5-0.5,0.7
				C117.8,29.2,118.3,25.7,119.6,22.6z M138.8,34.2l0.7-0.6l-1.2-1c-3-2.5-6.6-4-10.1-4.3c-0.2,0-0.4,0-0.7,0
				c-0.1-0.1-0.2-0.3-0.3-0.4c0,0,0,0,0,0c0-0.3,0-0.6,0-0.9c0.1-3.6-1.2-7.4-3.5-10.7c-0.1-0.2-0.3-0.3-0.4-0.5l-0.6-0.7l-0.6,0.7
				c-1.4,1.5-2.5,3.1-3.4,4.9c-3.8-2.1-7.9-3.2-12.1-3.2c-0.7,0-1.5,0-2.2,0.1c-7.4-0.7-14.8,2.1-20.3,7.6
				c-3.5,3.5-6.1,7.8-7.6,12.6c-1,3.3-1.3,6.8-1.3,10.3c0,3.2-0.1,6.4,0.5,9.6c1.1,6,4,11.5,8.4,15.8c5.6,5.5,13,8.3,20.3,7.6
				c0.7,0.1,1.5,0.1,2.2,0.1c6.6,0,13.1-2.7,18.1-7.7c3.3-3.2,5.8-7.2,7.2-11.6c1.3-3.8,1.5-7.8,1.6-11.8c0.1-4.2,0-8.2-1.2-12.2
				c0,0,0,0,0,0C134.7,36.9,136.9,35.7,138.8,34.2z"/>
		</defs>
		<use xlink:href="#SVGID_7_"  style="overflow:visible;fill:#FFFFFF;"/>
		<clipPath id="SVGID_8_">
			<use xlink:href="#SVGID_7_"  style="overflow:visible;"/>
		</clipPath>
		<rect x="70.8" y="10.5" class="st3" width="73.1" height="74.9"/>
	</g>
	<g>
		<defs>
			<path id="SVGID_9_" d="M116.3,52.8c-0.2,0-0.4-0.2-0.4-0.4c0-1.2-0.9-2.3-1.9-2.3c-1.1,0-1.9,1-1.9,2.3c0,0.2-0.2,0.4-0.4,0.4
				c-0.2,0-0.4-0.2-0.4-0.4c0-1.7,1.2-3.1,2.6-3.1c1.5,0,2.6,1.4,2.6,3.1C116.7,52.6,116.5,52.8,116.3,52.8z"/>
		</defs>
		<use xlink:href="#SVGID_9_"  style="overflow:visible;fill:#FFFFFF;"/>
		<clipPath id="SVGID_10_">
			<use xlink:href="#SVGID_9_"  style="overflow:visible;"/>
		</clipPath>
		<rect x="107" y="44.8" class="st4" width="14.1" height="12.3"/>
	</g>
	<g>
		<defs>
			<path id="SVGID_11_" d="M96,52.8c-0.2,0-0.4-0.2-0.4-0.4c0-1.2-0.9-2.3-1.9-2.3c-1.1,0-1.9,1-1.9,2.3c0,0.2-0.2,0.4-0.4,0.4
				s-0.4-0.2-0.4-0.4c0-1.7,1.2-3.1,2.6-3.1s2.6,1.4,2.6,3.1C96.4,52.6,96.2,52.8,96,52.8z"/>
		</defs>
		<use xlink:href="#SVGID_11_"  style="overflow:visible;fill:#FFFFFF;"/>
		<clipPath id="SVGID_12_">
			<use xlink:href="#SVGID_11_"  style="overflow:visible;"/>
		</clipPath>
		<rect x="86.7" y="44.8" class="st5" width="14.1" height="12.3"/>
	</g>
</g>
</svg>
